<svg xmlns="http://www.w3.org/2000/svg" xmlns:xlink="http://www.w3.org/1999/xlink" xmlns:lucid="lucid" width="1020.64" height="162.89"><g transform="translate(-379.35683312968126 -78.48126431050328)" lucid:page-tab-id="0_0"><path d="M869.24 186a6 6 0 0 1 6-6h28a6 6 0 0 1 6 6v28a6 6 0 0 1-6 6h-28a6 6 0 0 1-6-6z" stroke="#000" stroke-opacity="0" stroke-width="3" fill-opacity="0"/><use xlink:href="#a" transform="matrix(1,0,0,1,874.2444981432564,185.00000000000006) translate(9.327160493827162 19.652777777777775)"/><path d="M930.7 121.6h367.33" stroke="#5e5e5e" stroke-width="3" fill="none"/><path d="M930.75 123.1h-1.53v-3h1.53z" stroke="#5e5e5e" stroke-width=".05" fill="#5e5e5e"/><path d="M1313.8 121.6l-14.28 4.63v-9.27z" stroke="#5e5e5e" stroke-width="3" fill="#5e5e5e"/><path d="M849.24 106a6 6 0 0 1 6-6h68a6 6 0 0 1 6 6v28a6 6 0 0 1-6 6h-68a6 6 0 0 1-6-6z" stroke="#000" stroke-opacity="0" stroke-width="3" fill-opacity="0"/><use xlink:href="#b" transform="matrix(1,0,0,1,854.2444981432566,105.00000000000006) translate(2.962962962962969 19.652777777777775)"/><path d="M910.7 159.85h6.06m12.1 0h12.1m12.1 0h12.12m12.1 0h12.1m12.1 0h12.12m12.1 0h12.1m12.1 0h12.1m12.12 0h12.1m12.1 0h12.1m12.12 0h12.1m12.1 0h12.1m12.1 0h12.12m12.1 0h12.1m12.1 0h12.1m12.12 0h12.1m12.1 0h12.1m12.12 0h6.05" stroke="#5e5e5e" stroke-width="3" fill="none"/><path d="M910.75 161.35h-1.54v-3h1.55z" stroke="#5e5e5e" stroke-width=".05" fill="#5e5e5e"/><path d="M1313.8 159.85l-14.25 4.63v-9.27z" stroke="#5e5e5e" stroke-width="3" fill="#5e5e5e"/><path d="M869.24 145.92a6 6 0 0 1 6-6h28a6 6 0 0 1 6 6v28a6 6 0 0 1-6 6h-28a6 6 0 0 1-6-6z" stroke="#000" stroke-opacity="0" stroke-width="3" fill-opacity="0"/><use xlink:href="#c" transform="matrix(1,0,0,1,874.2444981432564,144.92437824296286) translate(9.327160493827162 19.652777777777775)"/><path d="M847.78 121.6h-386.5" stroke="#5e5e5e" stroke-width="3" fill="none"/><path d="M849.3 123.1h-1.55v-3h1.53zM461.33 123.1h-1.53v-3h1.53z" stroke="#5e5e5e" stroke-width=".05" fill="#5e5e5e"/><path d="M867.78 159.92h-6.35m-12.7 0h-12.7m-12.7 0h-12.7m-12.7 0h-12.7m-12.7 0H759.8m-12.7 0h-12.7m-12.7 0H709m-12.7 0h-12.7m-12.7 0h-12.7m-12.7 0h-12.7m-12.7 0h-12.7m-12.7 0H582m-12.7 0h-12.72m-12.7 0h-12.7m-12.7 0h-12.7m-12.7 0h-12.7m-12.7 0h-6.36" stroke="#5e5e5e" stroke-width="3" fill="none"/><path d="M869.28 161.42h-1.54v-3h1.54zM461.36 161.42h-1.54v-3h1.54z" stroke="#5e5e5e" stroke-width=".05" fill="#5e5e5e"/><path d="M867.78 198.26H461.36" stroke="#5e5e5e" stroke-width="3" fill="none"/><path d="M869.28 199.76h-1.54v-3h1.53zM461.38 199.76h-1.53v-3h1.53z" stroke="#5e5e5e" stroke-width=".05" fill="#5e5e5e"/><path d="M910.7 198.26h387.37" stroke="#5e5e5e" stroke-width="3" fill="none"/><path d="M910.74 199.76h-1.53v-3h1.54z" stroke="#5e5e5e" stroke-width=".05" fill="#5e5e5e"/><path d="M1313.84 198.26l-14.27 4.63v-9.28z" stroke="#5e5e5e" stroke-width="3" fill="#5e5e5e"/><path d="M399.36 104.48a6 6 0 0 1 6-6h48a6 6 0 0 1 6 6v110.9a6 6 0 0 1-6 6h-48a6 6 0 0 1-6-6z" stroke="#5e5e5e" fill="#ccc"/><use xlink:href="#d" transform="matrix(1,0,0,1,411.35683312968126,110.48126431050328) translate(-2.003255208333332 56.162326388888886)"/><path d="M1319.13 104.48a6 6 0 0 1 6-6H1374a6 6 0 0 1 6 6v110.9a6 6 0 0 1-6 6h-48.87a6 6 0 0 1-6-6z" stroke="#5e5e5e" fill="#ccc"/><use xlink:href="#e" transform="matrix(1,0,0,1,1331.1321631568317,110.48482342322936) translate(-1.5032552083333321 56.162326388888886)"/><defs><path fill="#333" d="M101-251c68 0 85 55 85 127S166 4 100 4C33 4 14-52 14-124c0-73 17-127 87-127zm-1 229c47 0 54-49 54-102s-4-102-53-102c-51 0-55 48-55 102 0 53 5 102 54 102" id="f"/><use transform="matrix(0.061728395061728385,0,0,0.061728395061728385,0,0)" xlink:href="#f" id="a"/><path fill="#333" d="M197 0v-115H63V0H30v-248h33v105h134v-105h34V0h-34" id="g"/><path fill="#333" d="M240 0l2-218c-23 76-54 145-80 218h-23L58-218 59 0H30v-248h44l77 211c21-75 51-140 76-211h43V0h-30" id="h"/><path fill="#333" d="M205 0l-28-72H64L36 0H1l101-248h38L239 0h-34zm-38-99l-47-123c-12 45-31 82-46 123h93" id="i"/><path fill="#333" d="M195 0l-74-108L45 0H8l94-129-87-119h37l69 98 67-98h37l-84 118L233 0h-38" id="j"/><g id="b"><use transform="matrix(0.061728395061728385,0,0,0.061728395061728385,0,0)" xlink:href="#g"/><use transform="matrix(0.061728395061728385,0,0,0.061728395061728385,15.987654320987652,0)" xlink:href="#h"/><use transform="matrix(0.061728395061728385,0,0,0.061728395061728385,34.44444444444444,0)" xlink:href="#i"/><use transform="matrix(0.061728395061728385,0,0,0.061728395061728385,49.25925925925925,0)" xlink:href="#j"/></g><path fill="#333" d="M67-158c15-20 31-36 64-36 94 0 33 127 27 194h-32l25-140c3-38-53-32-70-12C52-117 51-51 37 0H6l51-261h31" id="k"/><use transform="matrix(0.061728395061728385,0,0,0.061728395061728385,0,0)" xlink:href="#k" id="c"/><path fill="#333" d="M305-1169c27 366 9 780 14 1169H99v-1349h347c49 189 108 371 150 564 12 56 15 107 23 166 33-270 117-487 176-730h335V0H908c5-390-13-801 16-1169-52 285-130 541-199 809H507c-70-267-148-525-202-809" id="l"/><path fill="#333" d="M157-1349h916v228H762v893h311V0H157v-228h311v-893H157v-228" id="m"/><path fill="#333" d="M865-312c-44-312-23-686-28-1037h257V0H748L364-1010c44 304 24 668 28 1010H135v-1349h337" id="n"/><g id="d"><use transform="matrix(0.010850694444444444,0,0,0.010850694444444444,0,0)" xlink:href="#l"/><use transform="matrix(0.010850694444444444,0,0,0.010850694444444444,13.335503472222221,0)" xlink:href="#m"/><use transform="matrix(0.010850694444444444,0,0,0.010850694444444444,26.671006944444443,0)" xlink:href="#n"/></g><path fill="#333" d="M1229 0H935l-92-330H387L295 0H0l443-1349h344zM615-1167c-46 213-110 412-166 615h332c-56-204-119-401-166-615" id="o"/><path fill="#333" d="M919 0L616-493 312 0H0l459-711-418-638h312l263 430 262-430h310L760-711 1229 0H919" id="p"/><g id="e"><use transform="matrix(0.010850694444444444,0,0,0.010850694444444444,0,0)" xlink:href="#l"/><use transform="matrix(0.010850694444444444,0,0,0.010850694444444444,13.335503472222221,0)" xlink:href="#o"/><use transform="matrix(0.010850694444444444,0,0,0.010850694444444444,26.671006944444443,0)" xlink:href="#p"/></g></defs></g></svg>