<svg xmlns="http://www.w3.org/2000/svg" xmlns:xlink="http://www.w3.org/1999/xlink" xmlns:lucid="lucid" width="459" height="300"><g transform="translate(-280 -460)" lucid:page-tab-id="0_0"><path d="M300 486a6 6 0 0 1 6-6h407a6 6 0 0 1 6 6v248a6 6 0 0 1-6 6H306a6 6 0 0 1-6-6z" stroke="#000" stroke-opacity="0" stroke-width="3" fill-opacity="0"/><path d="M371.66 496.4a6 6 0 0 1 6-6h94.47a6 6 0 0 1 6 6V614a6 6 0 0 1-6 6h-94.47a6 6 0 0 1-6-6z" stroke="#5e5e5e" stroke-width="2" fill="#fff"/><use xlink:href="#a" transform="matrix(1,0,0,1,383.66218662117745,502.4041357495763) translate(9.494791666666679 14.800347222222216)"/><path d="M538.13 546a6 6 0 0 1 6-6h48a6 6 0 0 1 6 6v48.1a6 6 0 0 1-6 6h-48a6 6 0 0 1-6-6z" stroke="#5e5e5e" stroke-width="2" fill="#ccc"/><use xlink:href="#b" transform="matrix(1,0,0,1,550.1258349212544,552) translate(-3.3368055555555465 23.92534722222222)"/><path d="M308.13 676.4a6 6 0 0 1 6-6h88a6 6 0 0 1 6 6v48a6 6 0 0 1-6 6h-88a6 6 0 0 1-6-6z" stroke="#5e5e5e" stroke-width="2" fill="#fff"/><use xlink:href="#c" transform="matrix(1,0,0,1,320.12583492125435,682.4041357495763) translate(0.6605902777777928 23.800347222222214)"/><path d="M478.13 676.4a6 6 0 0 1 6-6h48a6 6 0 0 1 6 6v48a6 6 0 0 1-6 6h-48a6 6 0 0 1-6-6z" stroke="#5e5e5e" stroke-width="2" fill="#fff"/><use xlink:href="#d" transform="matrix(1,0,0,1,490.12583492125435,682.4041357495763) translate(7.331597222222227 23.800347222222214)"/><path d="M608.13 676.4a6 6 0 0 1 6-6h89.74a6 6 0 0 1 6 6v48a6 6 0 0 1-6 6h-89.74a6 6 0 0 1-6-6z" stroke="#5e5e5e" stroke-width="2" fill="#fff"/><use xlink:href="#e" transform="matrix(1,0,0,1,620.1258349212543,682.4041357495763) translate(1.6605902777777928 23.800347222222214)"/><path d="M410.63 700.4h45.88" stroke="#5e5e5e" stroke-width="3" fill="none"/><path d="M410.66 701.9h-1.53v-3h1.53z" stroke="#5e5e5e" stroke-width=".05" fill="#5e5e5e"/><path d="M472.27 700.4L458 705.04v-9.27z" stroke="#5e5e5e" stroke-width="3" fill="#5e5e5e"/><path d="M540.63 700.4h45.88" stroke="#5e5e5e" stroke-width="3" fill="none"/><path d="M540.66 701.9h-1.53v-3h1.53z" stroke="#5e5e5e" stroke-width=".05" fill="#5e5e5e"/><path d="M602.27 700.4L588 705.04v-9.27z" stroke="#5e5e5e" stroke-width="3" fill="#5e5e5e"/><defs><path fill="#5e5e5e" d="M615-1370c385 0 542 273 542 691 0 230-47 404-140 522S790 20 615 20C231 20 72-262 72-679c0-419 158-691 543-691zM797-330c77-133 78-564 0-695-44-73-101-113-182-113s-139 40-183 114c-79 133-78 560 0 694 45 77 102 118 183 118s138-41 182-118" id="f"/><path fill="#5e5e5e" d="M429-1484c1 190-1 388 0 572 54-116 155-191 317-191 300 0 386 257 386 563 0 241-73 429-226 518-49 28-106 42-169 42-162 0-251-81-306-196h-4c-1 59-5 127-15 176H140c4-67 9-153 8-236v-1248h281zm66 648c-93 114-92 466 1 585 35 45 77 79 142 79 64 0 112-31 148-92 69-115 68-440-2-561-39-68-131-111-221-70-25 11-46 32-68 59" id="g"/><path fill="#5e5e5e" d="M380 206c143 0 202-71 202-216v-882H228v-190h636V13c-6 279-184 412-459 412-107 0-208-16-288-43V172c69 16 169 34 263 34zm203-1483v-207h281v207H583" id="h"/><path fill="#5e5e5e" d="M1113-274C1038-96 884 20 626 20c-352 0-526-209-526-566 0-358 185-556 530-556 358 0 496 251 499 615H395c5 180 68 319 245 319 102 0 186-45 208-129zM857-663c-6-177-128-307-315-247-94 30-141 121-145 247h460" id="i"/><path fill="#5e5e5e" d="M1109-360C1066-122 902 20 624 20c-347 0-514-209-514-555 0-353 168-567 518-567 270 0 425 136 473 361l-283 14c-16-106-75-183-196-182-75 0-130 31-165 93s-52 152-52 270c0 249 74 374 221 374 120 0 188-82 201-201" id="j"/><path fill="#5e5e5e" d="M711 13c-250 0-386-99-385-349l2-556H161v-190h181l88-282h176v282h385v190H606v530c-10 130 45 186 174 184 91-2 176-11 255-27v186C933-1 833 13 711 13" id="k"/><g id="a"><use transform="matrix(0.008680555555555552,0,0,0.008680555555555552,0,0)" xlink:href="#f"/><use transform="matrix(0.008680555555555552,0,0,0.008680555555555552,10.668402777777773,0)" xlink:href="#g"/><use transform="matrix(0.008680555555555552,0,0,0.008680555555555552,21.336805555555546,0)" xlink:href="#h"/><use transform="matrix(0.008680555555555552,0,0,0.008680555555555552,32.00520833333332,0)" xlink:href="#i"/><use transform="matrix(0.008680555555555552,0,0,0.008680555555555552,42.67361111111109,0)" xlink:href="#j"/><use transform="matrix(0.008680555555555552,0,0,0.008680555555555552,53.342013888888864,0)" xlink:href="#k"/></g><path fill="#5e5e5e" d="M211 0v-1349h295v1121h616V0H211" id="l"/><path fill="#5e5e5e" d="M616-1102c361 0 521 202 521 560 0 354-171 562-527 562C259 20 92-192 92-542c0-351 169-560 524-560zm-9 930c200-2 236-165 236-370 0-199-27-367-223-367-195 0-233 146-233 367 0 129 18 223 55 282s92 88 165 88" id="m"/><path fill="#5e5e5e" d="M864 0L575-490l-121 84V0H173v-1484h281v850l386-448h302L762-660 1171 0H864" id="n"/><g id="b"><use transform="matrix(0.008680555555555552,0,0,0.008680555555555552,0,0)" xlink:href="#l"/><use transform="matrix(0.008680555555555552,0,0,0.008680555555555552,10.668402777777773,0)" xlink:href="#m"/><use transform="matrix(0.008680555555555552,0,0,0.008680555555555552,21.336805555555546,0)" xlink:href="#j"/><use transform="matrix(0.008680555555555552,0,0,0.008680555555555552,32.00520833333332,0)" xlink:href="#n"/></g><path fill="#5e5e5e" d="M775-193C708-75 621 20 439 20 226 20 106-93 106-306c0-251 170-341 417-346l223-4c4-143-12-264-148-264-103 0-141 58-150 153l-293-14c37-219 194-321 455-321 263 0 418 130 417 390v392c1 84 5 161 89 160 21 0 42-2 62-6v152c-57 15-108 27-180 26-145 0-202-73-217-205h-6zm-256 17c168 0 234-139 227-325-166 4-347-25-347 173 0 94 33 152 120 152" id="o"/><path fill="#5e5e5e" d="M800 425c-1-198 1-404 0-596C746-55 645 20 483 20 183 20 97-237 97-543c0-242 74-429 227-518 49-28 105-42 168-42 163 0 248 85 306 197h4c1-59 6-126 15-176h272c-4 67-9 153-8 236V425H800zm-66-671c93-114 91-467-2-586-35-45-76-79-141-79-64 0-113 31-149 92-69 115-66 440 4 561 39 68 130 111 220 70 25-11 46-31 68-58" id="p"/><path fill="#5e5e5e" d="M471 20c-247 0-336-169-336-415v-687h281v607c4 148 31 285 172 285 152 0 207-150 207-312v-580h281c4 359-9 736 8 1082H816c-7-63-11-146-12-215h-5C736-76 644 20 471 20" id="q"/><path fill="#5e5e5e" d="M794-190h353V0H118v-190h395v-702H223v-190h571v892zM513-1277v-207h281v207H513" id="r"/><path fill="#5e5e5e" d="M875-1102c70 0 148 7 206 17v237c-110-17-267-37-359 15-123 69-192 207-192 395V0H250c-10-367 32-789-52-1082h271c19 69 36 149 46 228h4c52-151 151-250 356-248" id="s"/><g id="c"><use transform="matrix(0.008680555555555552,0,0,0.008680555555555552,0,0)" xlink:href="#o"/><use transform="matrix(0.008680555555555552,0,0,0.008680555555555552,10.668402777777773,0)" xlink:href="#j"/><use transform="matrix(0.008680555555555552,0,0,0.008680555555555552,21.336805555555546,0)" xlink:href="#p"/><use transform="matrix(0.008680555555555552,0,0,0.008680555555555552,32.00520833333332,0)" xlink:href="#q"/><use transform="matrix(0.008680555555555552,0,0,0.008680555555555552,42.67361111111109,0)" xlink:href="#r"/><use transform="matrix(0.008680555555555552,0,0,0.008680555555555552,53.342013888888864,0)" xlink:href="#s"/><use transform="matrix(0.008680555555555552,0,0,0.008680555555555552,64.01041666666664,0)" xlink:href="#i"/></g><path fill="#5e5e5e" d="M616-1349c316 3 526 118 526 426 0 301-201 442-514 447H431V0H136v-1349h480zm-25 646c164 1 254-62 254-215 0-157-99-200-262-202H431v417h160" id="t"/><g id="d"><use transform="matrix(0.008680555555555552,0,0,0.008680555555555552,0,0)" xlink:href="#l"/><use transform="matrix(0.008680555555555552,0,0,0.008680555555555552,10.668402777777773,0)" xlink:href="#t"/></g><path fill="#5e5e5e" d="M794-190h353V0H118v-190h395v-1104H223v-190h571v1294" id="u"/><path fill="#5e5e5e" d="M622-916c-112 2-200 14-200 111 0 90 89 101 168 121 234 58 514 77 514 368C1104-4 751 54 434 5 267-21 161-112 121-270l247-37c24 111 113 145 252 141 114-3 226-12 226-124 0-101-103-113-192-134-225-54-490-76-490-351 0-247 201-328 458-328 245 0 413 88 457 292l-249 26c-16-98-92-133-208-131" id="v"/><g id="e"><use transform="matrix(0.008680555555555552,0,0,0.008680555555555552,0,0)" xlink:href="#s"/><use transform="matrix(0.008680555555555552,0,0,0.008680555555555552,10.668402777777773,0)" xlink:href="#i"/><use transform="matrix(0.008680555555555552,0,0,0.008680555555555552,21.336805555555546,0)" xlink:href="#u"/><use transform="matrix(0.008680555555555552,0,0,0.008680555555555552,32.00520833333332,0)" xlink:href="#i"/><use transform="matrix(0.008680555555555552,0,0,0.008680555555555552,42.67361111111109,0)" xlink:href="#o"/><use transform="matrix(0.008680555555555552,0,0,0.008680555555555552,53.342013888888864,0)" xlink:href="#v"/><use transform="matrix(0.008680555555555552,0,0,0.008680555555555552,64.01041666666664,0)" xlink:href="#i"/></g></defs></g></svg>