<svg xmlns="http://www.w3.org/2000/svg" xmlns:xlink="http://www.w3.org/1999/xlink" xmlns:lucid="lucid" width="459" height="300"><g transform="translate(-280 -460)" lucid:page-tab-id="0_0"><path d="M300 486a6 6 0 0 1 6-6h407a6 6 0 0 1 6 6v248a6 6 0 0 1-6 6H306a6 6 0 0 1-6-6z" stroke="#000" stroke-opacity="0" stroke-width="3" fill-opacity="0"/><path d="M453.54 496.4a6 6 0 0 1 6-6H554a6 6 0 0 1 6 6V614a6 6 0 0 1-6 6h-94.46a6 6 0 0 1-6-6z" stroke="#5e5e5e" stroke-width="2" fill="#fff"/><use xlink:href="#a" transform="matrix(1,0,0,1,465.5363516999231,502.4041357495763) translate(9.494791666666679 14.800347222222216)"/><path d="M476.77 546a6 6 0 0 1 6-6h48a6 6 0 0 1 6 6v48.1a6 6 0 0 1-6 6h-48a6 6 0 0 1-6-6z" stroke="#5e5e5e" stroke-width="2" fill="#ccc"/><use xlink:href="#b" transform="matrix(1,0,0,1,488.76817584996155,552) translate(-3.3368055555555465 23.92534722222222)"/><defs><path fill="#5e5e5e" d="M615-1370c385 0 542 273 542 691 0 230-47 404-140 522S790 20 615 20C231 20 72-262 72-679c0-419 158-691 543-691zM797-330c77-133 78-564 0-695-44-73-101-113-182-113s-139 40-183 114c-79 133-78 560 0 694 45 77 102 118 183 118s138-41 182-118" id="c"/><path fill="#5e5e5e" d="M429-1484c1 190-1 388 0 572 54-116 155-191 317-191 300 0 386 257 386 563 0 241-73 429-226 518-49 28-106 42-169 42-162 0-251-81-306-196h-4c-1 59-5 127-15 176H140c4-67 9-153 8-236v-1248h281zm66 648c-93 114-92 466 1 585 35 45 77 79 142 79 64 0 112-31 148-92 69-115 68-440-2-561-39-68-131-111-221-70-25 11-46 32-68 59" id="d"/><path fill="#5e5e5e" d="M380 206c143 0 202-71 202-216v-882H228v-190h636V13c-6 279-184 412-459 412-107 0-208-16-288-43V172c69 16 169 34 263 34zm203-1483v-207h281v207H583" id="e"/><path fill="#5e5e5e" d="M1113-274C1038-96 884 20 626 20c-352 0-526-209-526-566 0-358 185-556 530-556 358 0 496 251 499 615H395c5 180 68 319 245 319 102 0 186-45 208-129zM857-663c-6-177-128-307-315-247-94 30-141 121-145 247h460" id="f"/><path fill="#5e5e5e" d="M1109-360C1066-122 902 20 624 20c-347 0-514-209-514-555 0-353 168-567 518-567 270 0 425 136 473 361l-283 14c-16-106-75-183-196-182-75 0-130 31-165 93s-52 152-52 270c0 249 74 374 221 374 120 0 188-82 201-201" id="g"/><path fill="#5e5e5e" d="M711 13c-250 0-386-99-385-349l2-556H161v-190h181l88-282h176v282h385v190H606v530c-10 130 45 186 174 184 91-2 176-11 255-27v186C933-1 833 13 711 13" id="h"/><g id="a"><use transform="matrix(0.008680555555555552,0,0,0.008680555555555552,0,0)" xlink:href="#c"/><use transform="matrix(0.008680555555555552,0,0,0.008680555555555552,10.668402777777773,0)" xlink:href="#d"/><use transform="matrix(0.008680555555555552,0,0,0.008680555555555552,21.336805555555546,0)" xlink:href="#e"/><use transform="matrix(0.008680555555555552,0,0,0.008680555555555552,32.00520833333332,0)" xlink:href="#f"/><use transform="matrix(0.008680555555555552,0,0,0.008680555555555552,42.67361111111109,0)" xlink:href="#g"/><use transform="matrix(0.008680555555555552,0,0,0.008680555555555552,53.342013888888864,0)" xlink:href="#h"/></g><path fill="#5e5e5e" d="M211 0v-1349h295v1121h616V0H211" id="i"/><path fill="#5e5e5e" d="M616-1102c361 0 521 202 521 560 0 354-171 562-527 562C259 20 92-192 92-542c0-351 169-560 524-560zm-9 930c200-2 236-165 236-370 0-199-27-367-223-367-195 0-233 146-233 367 0 129 18 223 55 282s92 88 165 88" id="j"/><path fill="#5e5e5e" d="M864 0L575-490l-121 84V0H173v-1484h281v850l386-448h302L762-660 1171 0H864" id="k"/><g id="b"><use transform="matrix(0.008680555555555552,0,0,0.008680555555555552,0,0)" xlink:href="#i"/><use transform="matrix(0.008680555555555552,0,0,0.008680555555555552,10.668402777777773,0)" xlink:href="#j"/><use transform="matrix(0.008680555555555552,0,0,0.008680555555555552,21.336805555555546,0)" xlink:href="#g"/><use transform="matrix(0.008680555555555552,0,0,0.008680555555555552,32.00520833333332,0)" xlink:href="#k"/></g></defs></g></svg>