<svg xmlns="http://www.w3.org/2000/svg" xmlns:xlink="http://www.w3.org/1999/xlink" xmlns:lucid="lucid" width="1020.64" height="340"><g transform="translate(-379.35683312968126 -880)" lucid:page-tab-id="0_0"><path d="M600.67 982.67a6 6 0 0 1 6-6h26.02a6 6 0 0 1 6 6v34.22a6 6 0 0 1-6 6h-26.03a6 6 0 0 1-6-6z" stroke="#5e5e5e"/><use xlink:href="#a" transform="matrix(1,0,0,1,612.6666666666669,988.670563594467) translate(0.8322482638888893 19.2109375)"/><path d="M780 906a6 6 0 0 1 6-6h28a6 6 0 0 1 6 6v110.9a6 6 0 0 1-6 6h-28a6 6 0 0 1-6-6z" stroke="#5e5e5e"/><use xlink:href="#b" transform="matrix(1,0,0,1,792.0000000000001,912.0101170644962) translate(-5.335503472222221 56.162326388888886)"/><path d="M960 982.66a6 6 0 0 1 6-6h28a6 6 0 0 1 6 6v34.23a6 6 0 0 1-6 6h-28a6 6 0 0 1-6-6z" stroke="#5e5e5e"/><use xlink:href="#c" transform="matrix(1,0,0,1,972.0013463787059,988.6640056426969) translate(-5.335503472222221 18.16232638888889)"/><path d="M758.92 961.45h-297.6" stroke="#5e5e5e" stroke-width="3" fill="none"/><path d="M774.68 961.45l-14.26 4.64v-9.28z" stroke="#5e5e5e" stroke-width="3" fill="#5e5e5e"/><path d="M461.36 962.94h-1.54v-3h1.54z" stroke="#5e5e5e" stroke-width=".05" fill="#5e5e5e"/><path d="M920 1057.2a6 6 0 0 1 6-6h108a6 6 0 0 1 6 6v47.55a6 6 0 0 1-6 6H926a6 6 0 0 1-6-6z" stroke="#5e5e5e" fill="#fff"/><use xlink:href="#d" transform="matrix(1,0,0,1,932.0000000000002,1063.190994876572) translate(7.993489583333329 24.5234375)"/><use xlink:href="#e" transform="matrix(1,0,0,1,932.0000000000002,1063.190994876572) translate(74.67100694444444 24.5234375)"/><path d="M920 1145.04a6 6 0 0 1 6-6h108a6 6 0 0 1 6 6V1194a6 6 0 0 1-6 6H926a6 6 0 0 1-6-6z" stroke="#5e5e5e" fill="#fff"/><use xlink:href="#f" transform="matrix(1,0,0,1,932.0000000000002,1151.0447594920104) translate(7.993489583333329 24.7109375)"/><use xlink:href="#g" transform="matrix(1,0,0,1,932.0000000000002,1151.0447594920104) translate(74.67100694444444 24.7109375)"/><path d="M560 1145.04a6 6 0 0 1 6-6h108a6 6 0 0 1 6 6V1194a6 6 0 0 1-6 6H566a6 6 0 0 1-6-6z" stroke="#5e5e5e" fill="#fff"/><use xlink:href="#h" transform="matrix(1,0,0,1,572.0000000000002,1151.0447594920104) translate(7.993489583333329 24.7109375)"/><use xlink:href="#i" transform="matrix(1,0,0,1,572.0000000000002,1151.0447594920104) translate(74.67100694444444 24.7109375)"/><path d="M740 1057.2a6 6 0 0 1 6-6h108a6 6 0 0 1 6 6v47.55a6 6 0 0 1-6 6H746a6 6 0 0 1-6-6z" stroke="#5e5e5e" fill="#fff"/><use xlink:href="#f" transform="matrix(1,0,0,1,752.0000000000002,1063.190994876572) translate(7.993489583333329 24.5234375)"/><use xlink:href="#j" transform="matrix(1,0,0,1,752.0000000000002,1063.190994876572) translate(74.67100694444444 24.5234375)"/><path d="M560 1057.2a6 6 0 0 1 6-6h108a6 6 0 0 1 6 6v47.55a6 6 0 0 1-6 6H566a6 6 0 0 1-6-6z" stroke="#5e5e5e" fill="#fff"/><use xlink:href="#h" transform="matrix(1,0,0,1,572.0000000000002,1063.190994876572) translate(7.993489583333329 24.5234375)"/><use xlink:href="#k" transform="matrix(1,0,0,1,572.0000000000002,1063.190994876572) translate(74.67100694444444 24.5234375)"/><path d="M579.58 999.78H461.35" stroke="#5e5e5e" stroke-width="3" fill="none"/><path d="M595.35 999.78l-14.27 4.64v-9.27z" stroke="#5e5e5e" stroke-width="3" fill="#5e5e5e"/><path d="M461.38 1001.28h-1.53v-3h1.53z" stroke="#5e5e5e" stroke-width=".05" fill="#5e5e5e"/><path d="M640.65 999.78h118.3" stroke="#5e5e5e" stroke-width="3" fill="none"/><path d="M640.7 1001.28h-1.54v-3h1.53z" stroke="#5e5e5e" stroke-width=".05" fill="#5e5e5e"/><path d="M774.7 999.78l-14.26 4.64v-9.27z" stroke="#5e5e5e" stroke-width="3" fill="#5e5e5e"/><path d="M461.3 923.28h297.6" stroke="#5e5e5e" stroke-width="3" fill="none"/><path d="M461.33 924.78h-1.53v-3h1.53z" stroke="#5e5e5e" stroke-width=".05" fill="#5e5e5e"/><path d="M774.66 923.28l-14.27 4.64v-9.27z" stroke="#5e5e5e" stroke-width="3" fill="#5e5e5e"/><path d="M620 1111.7v10.5" stroke="#5e5e5e" fill="none"/><path d="M620.5 1111.72h-1v-.5h1z" stroke="#5e5e5e" stroke-width=".05" fill="#5e5e5e"/><path d="M620 1136.96l-4.64-14.26h9.28z" stroke="#5e5e5e" fill="#5e5e5e"/><path d="M980 1111.7v10.5" stroke="#5e5e5e" fill="none"/><path d="M980.5 1111.72h-1v-.5h1z" stroke="#5e5e5e" stroke-width=".05" fill="#5e5e5e"/><path d="M980 1136.96l-4.64-14.26h9.28z" stroke="#5e5e5e" fill="#5e5e5e"/><path d="M980 1023.85v10.5" stroke="#5e5e5e" fill="none"/><path d="M980.5 1023.86h-1v-.5h1z" stroke="#5e5e5e" stroke-width=".05" fill="#5e5e5e"/><path d="M980 1049.1l-4.63-14.26h9.27z" stroke="#5e5e5e" fill="#5e5e5e"/><path d="M800 1023.86v10.48" stroke="#5e5e5e" fill="none"/><path d="M800.5 1023.87h-1v-.5h1z" stroke="#5e5e5e" stroke-width=".05" fill="#5e5e5e"/><path d="M800 1049.1l-4.64-14.26h9.28z" stroke="#5e5e5e" fill="#5e5e5e"/><path d="M938.92 999.78H822" stroke="#5e5e5e" stroke-width="3" fill="none"/><path d="M954.68 999.78l-14.26 4.63v-9.26z" stroke="#5e5e5e" stroke-width="3" fill="#5e5e5e"/><path d="M822.03 1001.28h-1.54v-3h1.53z" stroke="#5e5e5e" stroke-width=".05" fill="#5e5e5e"/><path d="M821.94 923.28h476.08" stroke="#5e5e5e" stroke-width="3" fill="none"/><path d="M821.98 924.78h-1.54v-3h1.54z" stroke="#5e5e5e" stroke-width=".05" fill="#5e5e5e"/><path d="M1313.8 923.28l-14.28 4.64v-9.27z" stroke="#5e5e5e" stroke-width="3" fill="#5e5e5e"/><path d="M821.96 960.73h476.1" stroke="#5e5e5e" stroke-width="3" fill="none"/><path d="M822 962.23h-1.54v-3H822z" stroke="#5e5e5e" stroke-width=".05" fill="#5e5e5e"/><path d="M1313.8 960.73l-14.25 4.63v-9.27z" stroke="#5e5e5e" stroke-width="3" fill="#5e5e5e"/><path d="M619.68 1023.86v10.48" stroke="#5e5e5e" fill="none"/><path d="M620.18 1023.87h-1v-.5h1z" stroke="#5e5e5e" stroke-width=".05" fill="#5e5e5e"/><path d="M619.68 1049.1l-4.64-14.26h9.27z" stroke="#5e5e5e" fill="#5e5e5e"/><path d="M399.36 906a6 6 0 0 1 6-6h48a6 6 0 0 1 6 6v110.9a6 6 0 0 1-6 6h-48a6 6 0 0 1-6-6z" stroke="#5e5e5e" fill="#ccc"/><use xlink:href="#l" transform="matrix(1,0,0,1,411.35683312968126,912) translate(-2.003255208333332 56.162326388888886)"/><path d="M1319.13 906.17a6 6 0 0 1 6-6H1374a6 6 0 0 1 6 6v110.88a6 6 0 0 1-6 6h-48.87a6 6 0 0 1-6-6z" stroke="#5e5e5e" fill="#ccc"/><g><use xlink:href="#m" transform="matrix(1,0,0,1,1331.1321631568317,912.1710727059528) translate(-1.5032552083333321 56.162326388888886)"/></g><path d="M1001.97 999.78h296.1" stroke="#d916a8" stroke-width="3" fill="none"/><path d="M1002 1001.28h-1.53v-3h1.53z" stroke="#d916a8" stroke-width=".05" fill="#d916a8"/><path d="M1313.84 999.78l-14.27 4.63v-9.26z" stroke="#d916a8" stroke-width="3" fill="#d916a8"/><defs><path fill="#fff" d="M426-814c58-49 145-93 255-90 282 8 442 169 442 450 0 312-203 474-522 474-288 0-453-130-497-372l281-23c24 104 89 172 219 172 153 0 230-91 230-245 0-144-78-226-224-229-94-2-148 42-191 91H145l49-763h847v209H449" id="n"/><use transform="matrix(0.010850694444444444,0,0,0.010850694444444444,0,0)" xlink:href="#n" id="a"/><path fill="#fff" d="M138-1120c207-4 339-93 415-229h266v1140h323V0H149v-209h389v-891c-70 121-216 187-400 194v-214" id="o"/><path fill="#fff" d="M788-691c191 26 337 112 337 315 0 286-214 399-510 399-306 0-483-128-522-391l286-25c18 124 91 190 235 188 132-2 223-58 223-188 0-176-191-182-378-179v-227c176 5 345-9 345-176 0-115-82-171-200-171s-198 55-206 169l-281-20c34-252 213-373 492-373 224 0 381 74 451 224 20 43 29 89 29 136 0 195-130 279-301 315v4" id="p"/><g id="b"><use transform="matrix(0.010850694444444444,0,0,0.010850694444444444,0,0)" xlink:href="#o"/><use transform="matrix(0.010850694444444444,0,0,0.010850694444444444,13.335503472222221,0)" xlink:href="#p"/></g><path fill="#fff" d="M1092-1126C914-878 744-630 663-296c-23 96-34 194-34 296H336c7-366 145-620 298-854 59-90 126-177 197-264H131v-231h961v223" id="q"/><g id="c"><use transform="matrix(0.010850694444444444,0,0,0.010850694444444444,0,0)" xlink:href="#o"/><use transform="matrix(0.010850694444444444,0,0,0.010850694444444444,13.335503472222221,0)" xlink:href="#q"/></g><path fill="#333" d="M709-1193V0H519v-1193H76v-156h1076v156H709" id="r"/><path fill="#333" d="M116-856v-148h995v148H116zm0 512v-148h995v148H116" id="s"/><path fill="#333" d="M1060-1016c0 191-128 285-295 323v4c154 18 262 91 313 209 14 35 21 72 21 110 0 277-194 390-478 390-292 0-457-129-493-382l186-17c24 161 121 250 307 250 172 1 298-80 291-247-8-208-220-239-446-233v-156c217 9 409-34 409-232 0-152-102-225-264-225-159 0-264 88-278 233l-181-14c33-239 196-367 461-367 264 0 447 102 447 354" id="t"/><path fill="#333" d="M496 0v-299h235V0H496zm0-783v-299h235v299H496" id="u"/><g id="d"><use transform="matrix(0.010850694444444444,0,0,0.010850694444444444,0,0)" xlink:href="#r"/><use transform="matrix(0.010850694444444444,0,0,0.010850694444444444,13.335503472222221,0)" xlink:href="#s"/><use transform="matrix(0.010850694444444444,0,0,0.010850694444444444,26.671006944444443,0)" xlink:href="#t"/><use transform="matrix(0.010850694444444444,0,0,0.010850694444444444,40.006510416666664,0)" xlink:href="#u"/></g><path fill="#333" d="M353-779c69-51 166-92 291-90 218 3 357 100 423 255 21 52 32 109 32 170 0 305-189 464-500 464-268 0-424-116-471-335l182-21c35 130 124 212 293 209 198-4 309-114 309-313 0-182-118-282-305-282-120 0-198 45-262 101H169l47-728h801v145H382" id="v"/><use transform="matrix(0.010850694444444444,0,0,0.010850694444444444,0,0)" xlink:href="#v" id="e"/><path fill="#333" d="M148-1120c216-7 379-89 463-229h166v1204h353V0H157v-145h439v-1021c-79 124-254 184-448 194v-148" id="w"/><g id="f"><use transform="matrix(0.010850694444444444,0,0,0.010850694444444444,0,0)" xlink:href="#r"/><use transform="matrix(0.010850694444444444,0,0,0.010850694444444444,13.335503472222221,0)" xlink:href="#s"/><use transform="matrix(0.010850694444444444,0,0,0.010850694444444444,26.671006944444443,0)" xlink:href="#w"/><use transform="matrix(0.010850694444444444,0,0,0.010850694444444444,40.006510416666664,0)" xlink:href="#u"/></g><path fill="#333" d="M1069-1210C890-948 720-664 634-316c-25 105-38 210-38 316H408c9-385 153-667 302-925 57-98 120-190 185-279H158v-145h911v139" id="x"/><use transform="matrix(0.010850694444444444,0,0,0.010850694444444444,0,0)" xlink:href="#x" id="g"/><path fill="#333" d="M611-1370c266 0 451 106 451 368 0 147-77 243-154 327-132 144-316 255-451 395-42 44-75 87-96 134h723V0H144v-117c124-264 387-411 582-603 73-72 151-147 151-271 0-161-104-231-266-231-163 0-249 90-268 238l-184-17c35-233 185-369 452-369" id="y"/><g id="h"><use transform="matrix(0.010850694444444444,0,0,0.010850694444444444,0,0)" xlink:href="#r"/><use transform="matrix(0.010850694444444444,0,0,0.010850694444444444,13.335503472222221,0)" xlink:href="#s"/><use transform="matrix(0.010850694444444444,0,0,0.010850694444444444,26.671006944444443,0)" xlink:href="#y"/><use transform="matrix(0.010850694444444444,0,0,0.010850694444444444,40.006510416666664,0)" xlink:href="#u"/></g><path fill="#333" d="M141-911c0-296 172-459 469-459 157 0 276 55 356 166s121 278 121 501c-1 324-87 567-297 677-134 70-367 56-475-22-71-52-117-126-145-226l172-27c34 111 103 176 238 176 187 0 261-138 304-298 16-65 24-141 25-227-59 121-177 199-350 199-275 0-418-184-418-460zm461 318c168 0 289-96 289-269 0-158-59-275-163-332-36-20-77-30-124-30-187 0-280 125-280 313s90 318 278 318" id="z"/><use transform="matrix(0.010850694444444444,0,0,0.010850694444444444,0,0)" xlink:href="#z" id="i"/><use transform="matrix(0.010850694444444444,0,0,0.010850694444444444,0,0)" xlink:href="#w" id="j"/><use transform="matrix(0.010850694444444444,0,0,0.010850694444444444,0,0)" xlink:href="#t" id="k"/><path fill="#333" d="M305-1169c27 366 9 780 14 1169H99v-1349h347c49 189 108 371 150 564 12 56 15 107 23 166 33-270 117-487 176-730h335V0H908c5-390-13-801 16-1169-52 285-130 541-199 809H507c-70-267-148-525-202-809" id="A"/><path fill="#333" d="M157-1349h916v228H762v893h311V0H157v-228h311v-893H157v-228" id="B"/><path fill="#333" d="M865-312c-44-312-23-686-28-1037h257V0H748L364-1010c44 304 24 668 28 1010H135v-1349h337" id="C"/><g id="l"><use transform="matrix(0.010850694444444444,0,0,0.010850694444444444,0,0)" xlink:href="#A"/><use transform="matrix(0.010850694444444444,0,0,0.010850694444444444,13.335503472222221,0)" xlink:href="#B"/><use transform="matrix(0.010850694444444444,0,0,0.010850694444444444,26.671006944444443,0)" xlink:href="#C"/></g><path fill="#333" d="M1229 0H935l-92-330H387L295 0H0l443-1349h344zM615-1167c-46 213-110 412-166 615h332c-56-204-119-401-166-615" id="D"/><path fill="#333" d="M919 0L616-493 312 0H0l459-711-418-638h312l263 430 262-430h310L760-711 1229 0H919" id="E"/><g id="m"><use transform="matrix(0.010850694444444444,0,0,0.010850694444444444,0,0)" xlink:href="#A"/><use transform="matrix(0.010850694444444444,0,0,0.010850694444444444,13.335503472222221,0)" xlink:href="#D"/><use transform="matrix(0.010850694444444444,0,0,0.010850694444444444,26.671006944444443,0)" xlink:href="#E"/></g></defs></g></svg>