<svg xmlns="http://www.w3.org/2000/svg" xmlns:xlink="http://www.w3.org/1999/xlink" xmlns:lucid="lucid" width="1020.64" height="162.89"><g transform="translate(-379.35683312968126 -478.4830438668662)" lucid:page-tab-id="0_0"><path d="M399.36 504.48a6 6 0 0 1 6-6h48a6 6 0 0 1 6 6v110.9a6 6 0 0 1-6 6h-48a6 6 0 0 1-6-6z" stroke="#5e5e5e" fill="#ccc"/><use xlink:href="#a" transform="matrix(1,0,0,1,411.35683312968126,510.4830438668662) translate(-2.003255208333332 56.162326388888886)"/><path d="M1319.13 504.5a6 6 0 0 1 6-6H1374a6 6 0 0 1 6 6v110.88a6 6 0 0 1-6 6h-48.87a6 6 0 0 1-6-6z" stroke="#5e5e5e" fill="#ccc"/><use xlink:href="#b" transform="matrix(1,0,0,1,1331.1321631568317,510.49316093136235) translate(-1.5032552083333321 56.162326388888886)"/><path d="M600.67 581.15a6 6 0 0 1 6-6h26.02a6 6 0 0 1 6 6v34.23a6 6 0 0 1-6 6h-26.03a6 6 0 0 1-6-6z" stroke="#5e5e5e"/><use xlink:href="#c" transform="matrix(1,0,0,1,612.6666666666664,587.1536074613332) translate(0.8322482638888893 19.2109375)"/><path d="M780 504.5a6 6 0 0 1 6-6h28a6 6 0 0 1 6 6v110.88a6 6 0 0 1-6 6h-28a6 6 0 0 1-6-6z" stroke="#5e5e5e"/><use xlink:href="#d" transform="matrix(1,0,0,1,791.9999999999998,510.49316093136235) translate(-5.335503472222221 56.162326388888886)"/><path d="M960 581.15a6 6 0 0 1 6-6h28a6 6 0 0 1 6 6v34.22a6 6 0 0 1-6 6h-28a6 6 0 0 1-6-6z" stroke="#5e5e5e"/><use xlink:href="#e" transform="matrix(1,0,0,1,972.0013463787054,587.1470495095631) translate(-5.335503472222221 18.16232638888889)"/><path d="M1139.57 544.5a6 6 0 0 1 6-6h28a6 6 0 0 1 6 6v70.87a6 6 0 0 1-6 6h-28a6 6 0 0 1-6-6z" stroke="#5e5e5e"/><use xlink:href="#f" transform="matrix(1,0,0,1,1151.5667547677685,550.4931609313624) translate(-5.335503472222221 36.162326388888886)"/><path d="M619.68 558.43h139.24v3h-297.6v-3z" stroke="#5e5e5e" stroke-width=".05" fill="#5e5e5e"/><path d="M774.68 559.93l-14.26 4.64v-9.27z" fill="#5e5e5e"/><path d="M779.54 559.93l-20.62 6.7v-13.4zm-17.62 2.58l7.9-2.57-7.9-2.57z" stroke="#5e5e5e" stroke-width=".05" fill="#5e5e5e"/><path d="M461.36 561.43h-1.54v-3h1.54z" fill="#5e5e5e"/><path d="M461.38 561.45h-1.58v-3.05h1.58zm-1.54-3v2.95h1.5v-2.95z" stroke="#5e5e5e" stroke-width=".05" fill="#5e5e5e"/><path d="M579.58 598.26H461.35" stroke="#5e5e5e" stroke-width="3" fill="none"/><path d="M595.35 598.26l-14.27 4.64v-9.27z" stroke="#5e5e5e" stroke-width="3" fill="#5e5e5e"/><path d="M461.38 599.76h-1.53v-3h1.53z" stroke="#5e5e5e" stroke-width=".05" fill="#5e5e5e"/><path d="M640.65 598.26h118.3" stroke="#5e5e5e" stroke-width="3" fill="none"/><path d="M640.7 599.76h-1.54v-3h1.53z" stroke="#5e5e5e" stroke-width=".05" fill="#5e5e5e"/><path d="M774.7 598.26l-14.26 4.64v-9.27z" stroke="#5e5e5e" stroke-width="3" fill="#5e5e5e"/><path d="M758.9 523.1H461.3v-3h297.6z" stroke="#5e5e5e" stroke-width=".05" fill="#5e5e5e"/><path d="M461.33 523.1h-1.53v-3h1.53z" fill="#5e5e5e"/><path d="M461.36 523.13h-1.6v-3.05h1.6zm-1.54-3v2.95h1.5v-2.95z" stroke="#5e5e5e" stroke-width=".05" fill="#5e5e5e"/><path d="M774.66 521.6l-14.27 4.64v-9.27z" fill="#5e5e5e"/><path d="M779.5 521.6l-20.6 6.7v-13.4zm-17.6 2.57l7.9-2.57-7.9-2.57z" stroke="#5e5e5e" stroke-width=".05" fill="#5e5e5e"/><use xlink:href="#g" transform="matrix(1,0,0,1,619.6530693406852,512.2709387091401) translate(0 12.444444444444443)"/><path d="M938.92 598.26H822" stroke="#5e5e5e" stroke-width="3" fill="none"/><path d="M954.68 598.26l-14.26 4.63v-9.28z" stroke="#5e5e5e" stroke-width="3" fill="#5e5e5e"/><path d="M822.03 599.76h-1.54v-3h1.53z" stroke="#5e5e5e" stroke-width=".05" fill="#5e5e5e"/><path d="M1181.55 598.26h116.52" stroke="#5e5e5e" stroke-width="3" fill="none"/><path d="M1181.6 599.76h-1.55v-3h1.54z" stroke="#5e5e5e" stroke-width=".05" fill="#5e5e5e"/><path d="M1313.84 598.26l-14.27 4.63v-9.28z" stroke="#5e5e5e" stroke-width="3" fill="#5e5e5e"/><path d="M821.94 521.6h476.08" stroke="#5e5e5e" stroke-width="3" fill="none"/><path d="M821.98 523.1h-1.54v-3h1.54z" stroke="#5e5e5e" stroke-width=".05" fill="#5e5e5e"/><path d="M1313.8 521.6l-14.28 4.64v-9.27z" stroke="#5e5e5e" stroke-width="3" fill="#5e5e5e"/><path d="M821.96 559.93h296.5" stroke="#5e5e5e" stroke-width="3" fill="none"/><path d="M822 561.43h-1.54v-3H822z" stroke="#5e5e5e" stroke-width=".05" fill="#5e5e5e"/><path d="M1134.23 559.93l-14.27 4.64v-9.27z" stroke="#5e5e5e" stroke-width="3" fill="#5e5e5e"/><path d="M1001.97 598.26h116.53" stroke="#5e5e5e" stroke-width="3" fill="none"/><path d="M1002 599.76h-1.53v-3h1.53z" stroke="#5e5e5e" stroke-width=".05" fill="#5e5e5e"/><path d="M1134.27 598.26L1120 602.9v-9.28z" stroke="#5e5e5e" stroke-width="3" fill="#5e5e5e"/><path d="M1298.05 559.93H1181.5" stroke="#5e5e5e" stroke-width="3" fill="none"/><path d="M1313.8 559.93l-14.25 4.64v-9.27z" stroke="#5e5e5e" stroke-width="3" fill="#5e5e5e"/><path d="M1181.55 561.43H1180v-3h1.55z" stroke="#5e5e5e" stroke-width=".05" fill="#5e5e5e"/><defs><path fill="#333" d="M305-1169c27 366 9 780 14 1169H99v-1349h347c49 189 108 371 150 564 12 56 15 107 23 166 33-270 117-487 176-730h335V0H908c5-390-13-801 16-1169-52 285-130 541-199 809H507c-70-267-148-525-202-809" id="h"/><path fill="#333" d="M157-1349h916v228H762v893h311V0H157v-228h311v-893H157v-228" id="i"/><path fill="#333" d="M865-312c-44-312-23-686-28-1037h257V0H748L364-1010c44 304 24 668 28 1010H135v-1349h337" id="j"/><g id="a"><use transform="matrix(0.010850694444444444,0,0,0.010850694444444444,0,0)" xlink:href="#h"/><use transform="matrix(0.010850694444444444,0,0,0.010850694444444444,13.335503472222221,0)" xlink:href="#i"/><use transform="matrix(0.010850694444444444,0,0,0.010850694444444444,26.671006944444443,0)" xlink:href="#j"/></g><path fill="#333" d="M1229 0H935l-92-330H387L295 0H0l443-1349h344zM615-1167c-46 213-110 412-166 615h332c-56-204-119-401-166-615" id="k"/><path fill="#333" d="M919 0L616-493 312 0H0l459-711-418-638h312l263 430 262-430h310L760-711 1229 0H919" id="l"/><g id="b"><use transform="matrix(0.010850694444444444,0,0,0.010850694444444444,0,0)" xlink:href="#h"/><use transform="matrix(0.010850694444444444,0,0,0.010850694444444444,13.335503472222221,0)" xlink:href="#k"/><use transform="matrix(0.010850694444444444,0,0,0.010850694444444444,26.671006944444443,0)" xlink:href="#l"/></g><path fill="#fff" d="M426-814c58-49 145-93 255-90 282 8 442 169 442 450 0 312-203 474-522 474-288 0-453-130-497-372l281-23c24 104 89 172 219 172 153 0 230-91 230-245 0-144-78-226-224-229-94-2-148 42-191 91H145l49-763h847v209H449" id="m"/><use transform="matrix(0.010850694444444444,0,0,0.010850694444444444,0,0)" xlink:href="#m" id="c"/><path fill="#fff" d="M138-1120c207-4 339-93 415-229h266v1140h323V0H149v-209h389v-891c-70 121-216 187-400 194v-214" id="n"/><path fill="#fff" d="M788-691c191 26 337 112 337 315 0 286-214 399-510 399-306 0-483-128-522-391l286-25c18 124 91 190 235 188 132-2 223-58 223-188 0-176-191-182-378-179v-227c176 5 345-9 345-176 0-115-82-171-200-171s-198 55-206 169l-281-20c34-252 213-373 492-373 224 0 381 74 451 224 20 43 29 89 29 136 0 195-130 279-301 315v4" id="o"/><g id="d"><use transform="matrix(0.010850694444444444,0,0,0.010850694444444444,0,0)" xlink:href="#n"/><use transform="matrix(0.010850694444444444,0,0,0.010850694444444444,13.335503472222221,0)" xlink:href="#o"/></g><path fill="#fff" d="M1092-1126C914-878 744-630 663-296c-23 96-34 194-34 296H336c7-366 145-620 298-854 59-90 126-177 197-264H131v-231h961v223" id="p"/><g id="e"><use transform="matrix(0.010850694444444444,0,0,0.010850694444444444,0,0)" xlink:href="#n"/><use transform="matrix(0.010850694444444444,0,0,0.010850694444444444,13.335503472222221,0)" xlink:href="#p"/></g><path fill="#fff" d="M135-968c34-256 187-402 480-402 217 0 371 75 441 220 45 93 40 219-8 308-114 212-348 323-508 488-38 39-66 80-85 123h654V0H123v-195c112-245 321-399 515-560 57-48 107-96 142-157 14-26 22-53 22-80-1-104-73-156-185-154-131 2-181 74-199 194" id="q"/><path fill="#fff" d="M980-287V0H712v-287H71v-211l595-851h314v853h188v209H980zM712-496c2-204-7-417 9-609-118 224-277 405-414 609h405" id="r"/><g id="f"><use transform="matrix(0.010850694444444444,0,0,0.010850694444444444,0,0)" xlink:href="#q"/><use transform="matrix(0.010850694444444444,0,0,0.010850694444444444,13.335503472222221,0)" xlink:href="#r"/></g></defs></g></svg>