<svg xmlns="http://www.w3.org/2000/svg" xmlns:xlink="http://www.w3.org/1999/xlink" xmlns:lucid="lucid" width="620" height="380"><g transform="translate(-780 -40)" lucid:page-tab-id="0_0"><path d="M1020 126a6 6 0 0 1 6-6h48a6 6 0 0 1 6 6v108a6 6 0 0 1-6 6h-48a6 6 0 0 1-6-6z" fill-opacity="0"/><path d="M1035.94 120.06l10.87-.02m5.45 0l10.87-.02m5.44 0l5.44-.02.94.07.9.22.88.35.8.5.72.6.6.72.5.8.37.88.23.9v5.2m0 5.2v10.36m0 5.2l.02 10.37m0 5.2v10.37m0 5.18l.02 10.38m0 5.2v10.36m.02 5.2v10.36m0 5.2V234l-.07.94-.22.9-.35.88-.5.8-.6.72-.72.6-.8.5-.88.37-.9.23h-5.45m-5.44 0l-10.87.03m-5.45 0l-10.87.02m-5.44 0l-5.44.02-.94-.07-.9-.22-.88-.35-.8-.5-.72-.6-.6-.72-.5-.8-.37-.88-.23-.9v-5.2m0-5.2V214.2m0-5.2l-.02-10.37m0-5.2v-10.37m0-5.18l-.02-10.38m0-5.2v-10.36m-.02-5.2V136.4m0-5.2V126l.07-.94.22-.9.35-.88.5-.8.6-.72.72-.6.8-.5.88-.37.9-.23h5.45" stroke="#5e5e5e" fill="none"/><path d="M1070 190h60v40h-60z" fill="none"/><use xlink:href="#a" transform="matrix(1,0,0,1,1070,190) translate(22.70370370370371 25.33333333333333)"/><path d="M1220 126a6 6 0 0 1 6-6h48a6 6 0 0 1 6 6v108a6 6 0 0 1-6 6h-48a6 6 0 0 1-6-6z" fill-opacity="0"/><path d="M1235.94 120.06l10.87-.02m5.45 0l10.87-.02m5.44 0l5.44-.02.94.07.9.22.88.35.8.5.72.6.6.72.5.8.37.88.23.9v5.2m0 5.2v10.36m0 5.2l.02 10.37m0 5.2v10.37m0 5.18l.02 10.38m0 5.2v10.36m.02 5.2v10.36m0 5.2V234l-.07.94-.22.9-.35.88-.5.8-.6.72-.72.6-.8.5-.88.37-.9.23h-5.45m-5.44 0l-10.87.03m-5.45 0l-10.87.02m-5.44 0l-5.44.02-.94-.07-.9-.22-.88-.35-.8-.5-.72-.6-.6-.72-.5-.8-.37-.88-.23-.9v-5.2m0-5.2V214.2m0-5.2l-.02-10.37m0-5.2v-10.37m0-5.18l-.02-10.38m0-5.2v-10.36m-.02-5.2V136.4m0-5.2V126l.07-.94.22-.9.35-.88.5-.8.6-.72.72-.6.8-.5.88-.37.9-.23h5.45" stroke="#5e5e5e" fill="none"/><path d="M1020 326a6 6 0 0 1 6-6h48a6 6 0 0 1 6 6v48a6 6 0 0 1-6 6h-48a6 6 0 0 1-6-6z" stroke="#5e5e5e" stroke-width="2" fill="#fff"/><use xlink:href="#b" transform="matrix(1,0,0,1,1032,332) translate(9.998697916666668 25.828124999999996)"/><path d="M1120 326a6 6 0 0 1 6-6h48a6 6 0 0 1 6 6v48a6 6 0 0 1-6 6h-48a6 6 0 0 1-6-6z" stroke="#5e5e5e" stroke-width="2" fill="#fff"/><use xlink:href="#c" transform="matrix(1,0,0,1,1132,332) translate(9.998697916666668 25.828124999999996)"/><path d="M1220 326a6 6 0 0 1 6-6h48a6 6 0 0 1 6 6v48a6 6 0 0 1-6 6h-48a6 6 0 0 1-6-6z" stroke="#5e5e5e" stroke-width="2" fill="#fff"/><use xlink:href="#d" transform="matrix(1,0,0,1,1232,332) translate(9.998697916666668 25.828124999999996)"/><path d="M1320 326a6 6 0 0 1 6-6h48a6 6 0 0 1 6 6v48a6 6 0 0 1-6 6h-48a6 6 0 0 1-6-6z" stroke="#5e5e5e" stroke-width="2" fill="#ccc"/><use xlink:href="#e" transform="matrix(1,0,0,1,1332,332) translate(11.332248263888896 24.523437499999982)"/><path d="M1082.46 350h15.96" stroke="#5e5e5e" stroke-width="3" fill="none"/><path d="M1082.5 351.5h-1.53v-3h1.53z" stroke="#5e5e5e" stroke-width=".05" fill="#5e5e5e"/><path d="M1114.18 350l-14.26 4.64v-9.28z" stroke="#5e5e5e" stroke-width="3" fill="#5e5e5e"/><path d="M1182.46 350h15.96" stroke="#5e5e5e" stroke-width="3" fill="none"/><path d="M1182.5 351.5h-1.53v-3h1.53z" stroke="#5e5e5e" stroke-width=".05" fill="#5e5e5e"/><path d="M1214.18 350l-14.26 4.64v-9.28z" stroke="#5e5e5e" stroke-width="3" fill="#5e5e5e"/><path d="M1282.46 350h15.96" stroke="#5e5e5e" stroke-width="3" fill="none"/><path d="M1282.5 351.5h-1.53v-3h1.53z" stroke="#5e5e5e" stroke-width=".05" fill="#5e5e5e"/><path d="M1314.18 350l-14.26 4.64v-9.28z" stroke="#5e5e5e" stroke-width="3" fill="#5e5e5e"/><path d="M920 326a6 6 0 0 1 6-6h48a6 6 0 0 1 6 6v48a6 6 0 0 1-6 6h-48a6 6 0 0 1-6-6z" stroke="#5e5e5e" stroke-width="2" fill="#ccc"/><use xlink:href="#f" transform="matrix(1,0,0,1,932,332) translate(11.33224826388889 24.523437499999996)"/><path d="M982.46 350h15.96" stroke="#5e5e5e" stroke-width="3" fill="none"/><path d="M982.5 351.5h-1.53v-3h1.53z" stroke="#5e5e5e" stroke-width=".05" fill="#5e5e5e"/><path d="M1014.18 350l-14.26 4.64v-9.28z" stroke="#5e5e5e" stroke-width="3" fill="#5e5e5e"/><path d="M1020 126a6 6 0 0 1 6-6h48a6 6 0 0 1 6 6v48a6 6 0 0 1-6 6h-48a6 6 0 0 1-6-6z" stroke="#5e5e5e" stroke-width="2" fill="#fff"/><use xlink:href="#b" transform="matrix(1,0,0,1,1032,132) translate(9.998697916666668 25.828124999999996)"/><path d="M1220 126a6 6 0 0 1 6-6h48a6 6 0 0 1 6 6v48a6 6 0 0 1-6 6h-48a6 6 0 0 1-6-6z" stroke="#5e5e5e" stroke-width="2" fill="#fff"/><use xlink:href="#d" transform="matrix(1,0,0,1,1232,132) translate(9.998697916666668 25.828124999999996)"/><path d="M1320 126a6 6 0 0 1 6-6h48a6 6 0 0 1 6 6v48a6 6 0 0 1-6 6h-48a6 6 0 0 1-6-6z" stroke="#5e5e5e" stroke-width="2" fill="#ccc"/><use xlink:href="#e" transform="matrix(1,0,0,1,1332,132) translate(11.332248263888896 24.523437499999982)"/><path d="M1082.46 150h115.96" stroke="#5e5e5e" stroke-width="3" fill="none"/><path d="M1082.5 151.5h-1.53v-3h1.53z" stroke="#5e5e5e" stroke-width=".05" fill="#5e5e5e"/><path d="M1214.18 150l-14.26 4.64v-9.28z" stroke="#5e5e5e" stroke-width="3" fill="#5e5e5e"/><path d="M1282.46 150h15.96" stroke="#5e5e5e" stroke-width="3" fill="none"/><path d="M1282.5 151.5h-1.53v-3h1.53z" stroke="#5e5e5e" stroke-width=".05" fill="#5e5e5e"/><path d="M1314.18 150l-14.26 4.64v-9.28z" stroke="#5e5e5e" stroke-width="3" fill="#5e5e5e"/><path d="M920 126a6 6 0 0 1 6-6h48a6 6 0 0 1 6 6v48a6 6 0 0 1-6 6h-48a6 6 0 0 1-6-6z" stroke="#5e5e5e" stroke-width="2" fill="#ccc"/><use xlink:href="#f" transform="matrix(1,0,0,1,932,132) translate(11.33224826388889 24.523437499999996)"/><path d="M982.46 150h15.96" stroke="#5e5e5e" stroke-width="3" fill="none"/><path d="M982.5 151.5h-1.53v-3h1.53z" stroke="#5e5e5e" stroke-width=".05" fill="#5e5e5e"/><path d="M1014.18 150l-14.26 4.64v-9.28z" stroke="#5e5e5e" stroke-width="3" fill="#5e5e5e"/><path d="M1180 260c11.05 0 20 8.95 20 20s-8.95 20-20 20h-60c-11.05 0-20-8.95-20-20s8.95-20 20-20z" stroke="#282c33" stroke-width="2" fill="#fff"/><use xlink:href="#g" transform="matrix(1,0,0,1,1105,265) translate(17.22222222222223 19.75)"/><use xlink:href="#h" transform="matrix(1,0,0,1,1105,265) translate(39.44444444444444 19.75)"/><use xlink:href="#i" transform="matrix(1,0,0,1,1105,265) translate(61.666666666666664 19.75)"/><path d="M1180 60c11.05 0 20 8.95 20 20s-8.95 20-20 20h-60c-11.05 0-20-8.95-20-20s8.95-20 20-20z" stroke="#5e5e5e" stroke-width="2" fill="#fff"/><use xlink:href="#g" transform="matrix(1,0,0,1,1105,65) translate(6.111111111111114 19.75)"/><use xlink:href="#j" transform="matrix(1,0,0,1,1105,65) translate(28.333333333333332 19.75)"/><use xlink:href="#h" transform="matrix(1,0,0,1,1105,65) translate(50.55555555555555 19.75)"/><use xlink:href="#i" transform="matrix(1,0,0,1,1105,65) translate(72.77777777777777 19.75)"/><path d="M1098 279.95l-4.4-.22-5.16-.8-4.9-1.28-4.66-1.73-4.4-2.18-4.1-2.58-3.82-2.98-3.47-3.34-3.13-3.68-2.74-4-2.34-4.28-1.6-3.78" stroke="#282c33" stroke-width="2" stroke-linejoin="round" fill="none"/><path d="M1099.12 279l-.12.96.03 1.04-1.1-.05.1-2z" stroke="#282c33" stroke-width=".05" fill="#282c33"/><path d="M1050.58 234.18l7.12 13.2-9.12 1.67z" stroke="#282c33" stroke-width="2" fill="#282c33"/><path d="M1202 279.95l4.4-.22 5.16-.8 4.9-1.28 4.66-1.73 4.4-2.18 4.1-2.58 3.82-2.98 3.47-3.34 3.13-3.68 2.74-4 2.34-4.28 1.6-3.78" stroke="#282c33" stroke-width="2" stroke-linejoin="round" fill="none"/><path d="M1202.08 280.95l-1.2.06.12-.96-.03-1.04 1-.05z" stroke="#282c33" stroke-width=".05" fill="#282c33"/><path d="M1249.42 234.18l2 14.87-9.12-1.66z" stroke="#282c33" stroke-width="2" fill="#282c33"/><path d="M1070 210c0 11.05-8.95 20-20 20s-20-8.95-20-20 8.95-20 20-20 20 8.95 20 20z" stroke="#282c33" stroke-width="2" fill="#fff"/><use xlink:href="#k" transform="matrix(1,0,0,1,1035,195) translate(9.444444444444446 19.75)"/><path d="M1270 210c0 11.05-8.95 20-20 20s-20-8.95-20-20 8.95-20 20-20 20 8.95 20 20z" stroke="#282c33" stroke-width="2" fill="#fff"/><use xlink:href="#l" transform="matrix(1,0,0,1,1235,195) translate(9.444444444444446 19.75)"/><path d="M1170 210c0 11.05-8.95 20-20 20s-20-8.95-20-20 8.95-20 20-20 20 8.95 20 20z" stroke="#282c33" stroke-width="2" fill="#fff"/><use xlink:href="#m" transform="matrix(1,0,0,1,1135,195) translate(9.444444444444446 19.75)"/><path d="M1150 258v-8.5" stroke="#282c33" stroke-width="2" stroke-linejoin="round" fill="none"/><path d="M1151 259h-2v-1.03h2z" stroke="#282c33" stroke-width=".05" fill="#282c33"/><path d="M1150 234.24l4.64 14.26h-9.28z" stroke="#282c33" stroke-width="2" fill="#282c33"/><path d="M800 66a6 6 0 0 1 6-6h108a6 6 0 0 1 6 6v168a6 6 0 0 1-6 6H806a6 6 0 0 1-6-6z" fill="none"/><path d="M920 240c-5.52 0-10-4.48-10-10v-70c0-5.52-4.48-10-10-10 5.52 0 10-4.48 10-10V70c0-5.52 4.48-10 10-10" stroke="#5e5e5e" stroke-width="3" fill="none"/><use xlink:href="#n" transform="matrix(1,0,0,1,805,65) translate(11.635802469135818 76.11111111111111)"/><use xlink:href="#o" transform="matrix(1,0,0,1,805,65) translate(21.17283950617285 102.77777777777777)"/><path d="M800 266a6 6 0 0 1 6-6h108a6 6 0 0 1 6 6v128a6 6 0 0 1-6 6H806a6 6 0 0 1-6-6z" fill="none"/><path d="M920 400c-5.52 0-10-4.48-10-10v-50c0-5.52-4.48-10-10-10 5.52 0 10-4.48 10-10v-50c0-5.52 4.48-10 10-10" stroke="#5e5e5e" stroke-width="3" fill="none"/><g><use xlink:href="#n" transform="matrix(1,0,0,1,805,265) translate(11.635802469135818 56.111111111111114)"/><use xlink:href="#p" transform="matrix(1,0,0,1,805,265) translate(33.827160493827165 82.77777777777777)"/></g><path d="M1170 190h60v40h-60z" fill="none"/><g><use xlink:href="#a" transform="matrix(1,0,0,1,1170,190) translate(22.70370370370371 25.33333333333333)"/></g><defs><path fill="#282c33" d="M79-60L52-10H27l26-50H11v-26h55l33-64H11v-26h101l27-52h25l-26 52h48v26h-61L91-86h95v26H79" id="q"/><use transform="matrix(0.07407407407407401,0,0,0.07407407407407401,0,0)" xlink:href="#q" id="a"/><path fill="#333" d="M138-1120c207-4 339-93 415-229h266v1140h323V0H149v-209h389v-891c-70 121-216 187-400 194v-214" id="r"/><use transform="matrix(0.013020833333333332,0,0,0.013020833333333332,0,0)" xlink:href="#r" id="b"/><path fill="#333" d="M788-691c191 26 337 112 337 315 0 286-214 399-510 399-306 0-483-128-522-391l286-25c18 124 91 190 235 188 132-2 223-58 223-188 0-176-191-182-378-179v-227c176 5 345-9 345-176 0-115-82-171-200-171s-198 55-206 169l-281-20c34-252 213-373 492-373 224 0 381 74 451 224 20 43 29 89 29 136 0 195-130 279-301 315v4" id="s"/><use transform="matrix(0.013020833333333332,0,0,0.013020833333333332,0,0)" xlink:href="#s" id="c"/><path fill="#333" d="M980-287V0H712v-287H71v-211l595-851h314v853h188v209H980zM712-496c2-204-7-417 9-609-118 224-277 405-414 609h405" id="t"/><use transform="matrix(0.013020833333333332,0,0,0.013020833333333332,0,0)" xlink:href="#t" id="d"/><path fill="#333" d="M1092-1126C914-878 744-630 663-296c-23 96-34 194-34 296H336c7-366 145-620 298-854 59-90 126-177 197-264H131v-231h961v223" id="u"/><use transform="matrix(0.010850694444444434,0,0,0.010850694444444434,0,0)" xlink:href="#u" id="e"/><path fill="#333" d="M117-675c0-408 109-695 502-695 384 0 492 295 492 695 0 326-84 561-303 658-117 51-277 52-394 1-217-95-297-335-297-659zm591 451c148-93 132-449 108-680-15-138-53-246-199-246-150 0-193 107-207 248-22 230-40 585 106 678 50 32 141 32 192 0zM506-555v-249h215v249H506" id="v"/><use transform="matrix(0.010850694444444442,0,0,0.010850694444444442,0,0)" xlink:href="#v" id="f"/><path fill="#282c33" d="M101-251c82-7 93 87 43 132L82-64C71-53 59-42 53-27h129V0H18c2-99 128-94 128-182 0-28-16-43-45-43s-46 15-49 41l-32-3c6-41 34-60 81-64" id="w"/><path fill="#282c33" d="M68-38c1 34 0 65-14 84H32c9-13 17-26 17-46H33v-38h35" id="x"/><g id="g"><use transform="matrix(0.055555555555555546,0,0,0.055555555555555546,0,0)" xlink:href="#w"/><use transform="matrix(0.055555555555555546,0,0,0.055555555555555546,11.111111111111109,0)" xlink:href="#x"/></g><path fill="#282c33" d="M54-142c48-35 137-8 131 61C196 18 31 33 14-55l32-4c7 23 22 37 52 37 35-1 51-22 54-58 4-55-73-65-99-34H22l8-134h141v27H59" id="y"/><g id="h"><use transform="matrix(0.055555555555555546,0,0,0.055555555555555546,0,0)" xlink:href="#y"/><use transform="matrix(0.055555555555555546,0,0,0.055555555555555546,11.111111111111109,0)" xlink:href="#x"/></g><path fill="#282c33" d="M110-160c48 1 74 30 74 79 0 53-28 85-80 85-65 0-83-55-86-122-5-90 50-162 133-122 14 7 22 21 27 39l-31 6c-5-40-67-38-82-6-9 19-15 44-15 74 11-20 30-34 60-33zm-7 138c34 0 49-23 49-58s-16-56-50-56c-29 0-50 16-49 49 1 36 15 65 50 65" id="z"/><use transform="matrix(0.055555555555555546,0,0,0.055555555555555546,0,0)" xlink:href="#z" id="i"/><path fill="#282c33" d="M126-127c33 6 58 20 58 59 0 88-139 92-164 29-3-8-5-16-6-25l32-3c6 27 21 44 54 44 32 0 52-15 52-46 0-38-36-46-79-43v-28c39 1 72-4 72-42 0-27-17-43-46-43-28 0-47 15-49 41l-32-3c6-42 35-63 81-64 48-1 79 21 79 65 0 36-21 52-52 59" id="A"/><g id="j"><use transform="matrix(0.055555555555555546,0,0,0.055555555555555546,0,0)" xlink:href="#A"/><use transform="matrix(0.055555555555555546,0,0,0.055555555555555546,11.111111111111109,0)" xlink:href="#x"/></g><path fill="#333" d="M27 0v-27h64v-190l-56 39v-29l58-41h29v221h61V0H27" id="B"/><use transform="matrix(0.055555555555555546,0,0,0.055555555555555546,0,0)" xlink:href="#B" id="k"/><path fill="#333" d="M155-56V0h-30v-56H8v-25l114-167h33v167h35v25h-35zm-30-156c-27 46-58 90-88 131h88v-131" id="C"/><use transform="matrix(0.055555555555555546,0,0,0.055555555555555546,0,0)" xlink:href="#C" id="l"/><path fill="#333" d="M126-127c33 6 58 20 58 59 0 88-139 92-164 29-3-8-5-16-6-25l32-3c6 27 21 44 54 44 32 0 52-15 52-46 0-38-36-46-79-43v-28c39 1 72-4 72-42 0-27-17-43-46-43-28 0-47 15-49 41l-32-3c6-42 35-63 81-64 48-1 79 21 79 65 0 36-21 52-52 59" id="D"/><use transform="matrix(0.055555555555555546,0,0,0.055555555555555546,0,0)" xlink:href="#D" id="m"/><path fill="#333" d="M24 0v-248h52v208h133V0H24" id="E"/><path fill="#333" d="M185-48c-13 30-37 53-82 52C43 2 14-33 14-96s30-98 90-98c62 0 83 45 84 108H66c0 31 8 55 39 56 18 0 30-7 34-22zm-45-69c5-46-57-63-70-21-2 6-4 13-4 21h74" id="F"/><path fill="#333" d="M128 0H69L1-190h53L99-40l48-150h52" id="G"/><path fill="#333" d="M25 0v-261h50V0H25" id="H"/><g id="n"><use transform="matrix(0.06172839506172837,0,0,0.06172839506172837,0,0)" xlink:href="#E"/><use transform="matrix(0.06172839506172837,0,0,0.06172839506172837,13.518518518518514,0)" xlink:href="#F"/><use transform="matrix(0.06172839506172837,0,0,0.06172839506172837,25.86419753086419,0)" xlink:href="#G"/><use transform="matrix(0.06172839506172837,0,0,0.06172839506172837,38.20987654320986,0)" xlink:href="#F"/><use transform="matrix(0.06172839506172837,0,0,0.06172839506172837,50.55555555555553,0)" xlink:href="#H"/></g><path fill="#333" d="M128 0L95-87 70-74 55 0H6l51-261h49L77-111l82-79h56l-83 74L180 0h-52" id="I"/><path fill="#333" d="M132-100v72H92v-72H22v-39h70v-72h40v72h70v39h-70" id="J"/><path fill="#333" d="M6 0l7-41h62l31-161-67 37 8-42 70-41h48L124-41h57l-8 41H6" id="K"/><g id="o"><use transform="matrix(0.06172839506172837,0,0,0.06172839506172837,0,0)" xlink:href="#I"/><use transform="matrix(0.06172839506172837,0,0,0.06172839506172837,12.345679012345673,0)" xlink:href="#J"/><use transform="matrix(0.06172839506172837,0,0,0.06172839506172837,25.308641975308632,0)" xlink:href="#K"/></g><use transform="matrix(0.06172839506172837,0,0,0.06172839506172837,0,0)" xlink:href="#I" id="p"/></defs></g></svg>