<svg xmlns="http://www.w3.org/2000/svg" xmlns:xlink="http://www.w3.org/1999/xlink" xmlns:lucid="lucid" width="1020.64" height="162.89"><g transform="translate(-379.35683312968126 -478.4830438668662)" lucid:page-tab-id="0_0"><path d="M399.36 504.48a6 6 0 0 1 6-6h48a6 6 0 0 1 6 6v110.9a6 6 0 0 1-6 6h-48a6 6 0 0 1-6-6z" stroke="#5e5e5e" fill="#ccc"/><use xlink:href="#a" transform="matrix(1,0,0,1,411.35683312968126,510.4830438668662) translate(-2.003255208333332 56.162326388888886)"/><path d="M1319.13 504.5a6 6 0 0 1 6-6H1374a6 6 0 0 1 6 6v110.88a6 6 0 0 1-6 6h-48.87a6 6 0 0 1-6-6z" stroke="#5e5e5e" fill="#ccc"/><use xlink:href="#b" transform="matrix(1,0,0,1,1331.1321631568317,510.49316093136235) translate(-1.5032552083333321 56.162326388888886)"/><path d="M600.67 581.15a6 6 0 0 1 6-6h26.02a6 6 0 0 1 6 6v34.23a6 6 0 0 1-6 6h-26.03a6 6 0 0 1-6-6z" stroke="#5e5e5e"/><use xlink:href="#c" transform="matrix(1,0,0,1,612.6666666666664,587.1536074613332) translate(0.8322482638888893 19.2109375)"/><path d="M780 504.5a6 6 0 0 1 6-6h28a6 6 0 0 1 6 6v110.88a6 6 0 0 1-6 6h-28a6 6 0 0 1-6-6z" stroke="#5e5e5e"/><use xlink:href="#d" transform="matrix(1,0,0,1,791.9999999999998,510.49316093136235) translate(-5.335503472222221 56.162326388888886)"/><path d="M960 581.15a6 6 0 0 1 6-6h28a6 6 0 0 1 6 6v34.22a6 6 0 0 1-6 6h-28a6 6 0 0 1-6-6z" stroke="#5e5e5e"/><use xlink:href="#e" transform="matrix(1,0,0,1,972.0013463787054,587.1470495095631) translate(-5.335503472222221 18.16232638888889)"/><path d="M1139.57 544.5a6 6 0 0 1 6-6h28a6 6 0 0 1 6 6v70.87a6 6 0 0 1-6 6h-28a6 6 0 0 1-6-6z" stroke="#5e5e5e"/><use xlink:href="#f" transform="matrix(1,0,0,1,1151.5667547677685,550.4931609313624) translate(-5.335503472222221 36.162326388888886)"/><path d="M619.68 558.43h139.24v3h-297.6v-3z" stroke="#5e5e5e" stroke-width=".05" fill="#5e5e5e"/><path d="M774.68 559.93l-14.26 4.64v-9.27z" fill="#5e5e5e"/><path d="M779.54 559.93l-20.62 6.7v-13.4zm-17.62 2.58l7.9-2.57-7.9-2.57z" stroke="#5e5e5e" stroke-width=".05" fill="#5e5e5e"/><path d="M461.36 561.43h-1.54v-3h1.54z" fill="#5e5e5e"/><path d="M461.38 561.45h-1.58v-3.05h1.58zm-1.54-3v2.95h1.5v-2.95z" stroke="#5e5e5e" stroke-width=".05" fill="#5e5e5e"/><path d="M579.58 598.26H461.35" stroke="#5e5e5e" stroke-width="3" fill="none"/><path d="M595.35 598.26l-14.27 4.64v-9.27z" stroke="#5e5e5e" stroke-width="3" fill="#5e5e5e"/><path d="M461.38 599.76h-1.53v-3h1.53z" stroke="#5e5e5e" stroke-width=".05" fill="#5e5e5e"/><path d="M640.65 598.26h118.3" stroke="#5e5e5e" stroke-width="3" fill="none"/><path d="M640.7 599.76h-1.54v-3h1.53z" stroke="#5e5e5e" stroke-width=".05" fill="#5e5e5e"/><path d="M774.7 598.26l-14.26 4.64v-9.27z" stroke="#5e5e5e" stroke-width="3" fill="#5e5e5e"/><path d="M610.2 523.1H461.3v-3h148.9zm148.7 0H629.1v-3H758.9z" stroke="#54c45e" stroke-width=".05" fill="#54c45e"/><path d="M461.33 523.1h-1.53v-3h1.53z" fill="#54c45e"/><path d="M461.36 523.13h-1.6v-3.05h1.6zm-1.54-3v2.95h1.5v-2.95z" stroke="#54c45e" stroke-width=".05" fill="#54c45e"/><path d="M774.66 521.6l-14.27 4.64v-9.27z" fill="#54c45e"/><path d="M779.5 521.6l-20.6 6.7v-13.4zm-17.6 2.57l7.9-2.57-7.9-2.57z" stroke="#54c45e" stroke-width=".05" fill="#54c45e"/><use xlink:href="#g" transform="matrix(1,0,0,1,610.1901063777223,512.2709387091401) translate(0 12.444444444444443)"/><path d="M880.55 599.76H822v-3h58.55zm58.37 0h-39.44v-3h39.44z" stroke="#54c45e" stroke-width=".05" fill="#54c45e"/><path d="M954.68 598.26l-14.26 4.63v-9.28z" fill="#54c45e"/><path d="M959.54 598.26l-20.62 6.7v-13.4zm-17.62 2.57l7.9-2.57-7.9-2.57z" stroke="#54c45e" stroke-width=".05" fill="#54c45e"/><path d="M822.03 599.76h-1.54v-3h1.53z" fill="#54c45e"/><path d="M822.05 599.78h-1.6v-3.05h1.6zm-1.54-3v2.95h1.5v-2.95z" stroke="#54c45e" stroke-width=".05" fill="#54c45e"/><use xlink:href="#h" transform="matrix(1,0,0,1,880.5500443909508,588.9248272873408) translate(0 12.444444444444443)"/><path d="M1181.55 598.26h116.52" stroke="#5e5e5e" stroke-width="3" fill="none"/><path d="M1181.6 599.76h-1.55v-3h1.54z" stroke="#5e5e5e" stroke-width=".05" fill="#5e5e5e"/><path d="M1313.84 598.26l-14.27 4.63v-9.28z" stroke="#5e5e5e" stroke-width="3" fill="#5e5e5e"/><path d="M1060.08 523.1H821.94v-3h238.14zm237.94 0H1079v-3h219.02z" stroke="#e81313" stroke-width=".05" fill="#e81313"/><path d="M821.98 523.1h-1.54v-3h1.54z" fill="#e81313"/><path d="M822 523.13h-1.6v-3.05h1.6zm-1.54-3v2.95h1.5v-2.95z" stroke="#e81313" stroke-width=".05" fill="#e81313"/><path d="M1313.8 521.6l-14.28 4.64v-9.27z" fill="#e81313"/><path d="M1318.64 521.6l-20.62 6.7v-13.4zm-17.62 2.57l7.92-2.57-7.92-2.57z" stroke="#e81313" stroke-width=".05" fill="#e81313"/><use xlink:href="#i" transform="matrix(1,0,0,1,1060.0777682358212,512.2709387091402) translate(0 12.444444444444443)"/><path d="M970.3 561.43H821.97v-3H970.3zm148.16 0H989.24v-3h129.22z" stroke="#e81313" stroke-width=".05" fill="#e81313"/><path d="M822 561.43h-1.54v-3H822z" fill="#e81313"/><path d="M822.03 561.46h-1.6v-3.05h1.6zm-1.54-3v2.95h1.48v-2.94z" stroke="#e81313" stroke-width=".05" fill="#e81313"/><path d="M1134.23 559.93l-14.27 4.64v-9.27z" fill="#e81313"/><path d="M1139.08 559.93l-20.62 6.7v-13.4zm-17.62 2.58l7.9-2.57-7.9-2.57z" stroke="#e81313" stroke-width=".05" fill="#e81313"/><use xlink:href="#j" transform="matrix(1,0,0,1,970.3100315487959,550.6011619741255) translate(0 12.444444444444443)"/><path d="M1118.5 599.76h-116.53v-3h116.53z" stroke="#5e5e5e" stroke-width=".05" fill="#5e5e5e"/><path d="M1002 599.76h-1.53v-3h1.53z" fill="#5e5e5e"/><path d="M1002.03 599.78h-1.6v-3.05h1.6zm-1.54-3v2.95h1.48v-2.95z" stroke="#5e5e5e" stroke-width=".05" fill="#5e5e5e"/><path d="M1134.27 598.26L1120 602.9v-9.28z" fill="#5e5e5e"/><path d="M1139.12 598.26l-20.62 6.7v-13.4zm-17.62 2.57l7.9-2.57-7.9-2.57z" stroke="#5e5e5e" stroke-width=".05" fill="#5e5e5e"/><path d="M1298.05 559.93H1181.5" stroke="#5e5e5e" stroke-width="3" fill="none"/><path d="M1313.8 559.93l-14.25 4.64v-9.27z" stroke="#5e5e5e" stroke-width="3" fill="#5e5e5e"/><path d="M1181.55 561.43H1180v-3h1.55z" stroke="#5e5e5e" stroke-width=".05" fill="#5e5e5e"/><defs><path fill="#333" d="M305-1169c27 366 9 780 14 1169H99v-1349h347c49 189 108 371 150 564 12 56 15 107 23 166 33-270 117-487 176-730h335V0H908c5-390-13-801 16-1169-52 285-130 541-199 809H507c-70-267-148-525-202-809" id="k"/><path fill="#333" d="M157-1349h916v228H762v893h311V0H157v-228h311v-893H157v-228" id="l"/><path fill="#333" d="M865-312c-44-312-23-686-28-1037h257V0H748L364-1010c44 304 24 668 28 1010H135v-1349h337" id="m"/><g id="a"><use transform="matrix(0.010850694444444444,0,0,0.010850694444444444,0,0)" xlink:href="#k"/><use transform="matrix(0.010850694444444444,0,0,0.010850694444444444,13.335503472222221,0)" xlink:href="#l"/><use transform="matrix(0.010850694444444444,0,0,0.010850694444444444,26.671006944444443,0)" xlink:href="#m"/></g><path fill="#333" d="M1229 0H935l-92-330H387L295 0H0l443-1349h344zM615-1167c-46 213-110 412-166 615h332c-56-204-119-401-166-615" id="n"/><path fill="#333" d="M919 0L616-493 312 0H0l459-711-418-638h312l263 430 262-430h310L760-711 1229 0H919" id="o"/><g id="b"><use transform="matrix(0.010850694444444444,0,0,0.010850694444444444,0,0)" xlink:href="#k"/><use transform="matrix(0.010850694444444444,0,0,0.010850694444444444,13.335503472222221,0)" xlink:href="#n"/><use transform="matrix(0.010850694444444444,0,0,0.010850694444444444,26.671006944444443,0)" xlink:href="#o"/></g><path fill="#fff" d="M426-814c58-49 145-93 255-90 282 8 442 169 442 450 0 312-203 474-522 474-288 0-453-130-497-372l281-23c24 104 89 172 219 172 153 0 230-91 230-245 0-144-78-226-224-229-94-2-148 42-191 91H145l49-763h847v209H449" id="p"/><use transform="matrix(0.010850694444444444,0,0,0.010850694444444444,0,0)" xlink:href="#p" id="c"/><path fill="#fff" d="M138-1120c207-4 339-93 415-229h266v1140h323V0H149v-209h389v-891c-70 121-216 187-400 194v-214" id="q"/><path fill="#fff" d="M788-691c191 26 337 112 337 315 0 286-214 399-510 399-306 0-483-128-522-391l286-25c18 124 91 190 235 188 132-2 223-58 223-188 0-176-191-182-378-179v-227c176 5 345-9 345-176 0-115-82-171-200-171s-198 55-206 169l-281-20c34-252 213-373 492-373 224 0 381 74 451 224 20 43 29 89 29 136 0 195-130 279-301 315v4" id="r"/><g id="d"><use transform="matrix(0.010850694444444444,0,0,0.010850694444444444,0,0)" xlink:href="#q"/><use transform="matrix(0.010850694444444444,0,0,0.010850694444444444,13.335503472222221,0)" xlink:href="#r"/></g><path fill="#fff" d="M1092-1126C914-878 744-630 663-296c-23 96-34 194-34 296H336c7-366 145-620 298-854 59-90 126-177 197-264H131v-231h961v223" id="s"/><g id="e"><use transform="matrix(0.010850694444444444,0,0,0.010850694444444444,0,0)" xlink:href="#q"/><use transform="matrix(0.010850694444444444,0,0,0.010850694444444444,13.335503472222221,0)" xlink:href="#s"/></g><path fill="#fff" d="M135-968c34-256 187-402 480-402 217 0 371 75 441 220 45 93 40 219-8 308-114 212-348 323-508 488-38 39-66 80-85 123h654V0H123v-195c112-245 321-399 515-560 57-48 107-96 142-157 14-26 22-53 22-80-1-104-73-156-185-154-131 2-181 74-199 194" id="t"/><path fill="#fff" d="M980-287V0H712v-287H71v-211l595-851h314v853h188v209H980zM712-496c2-204-7-417 9-609-118 224-277 405-414 609h405" id="u"/><g id="f"><use transform="matrix(0.010850694444444444,0,0,0.010850694444444444,0,0)" xlink:href="#t"/><use transform="matrix(0.010850694444444444,0,0,0.010850694444444444,13.335503472222221,0)" xlink:href="#u"/></g><path fill="#333" d="M87 75C49 33 22-17 22-94c0-76 28-126 65-167h31c-38 41-64 92-64 168S80 34 118 75H87" id="v"/><path fill="#333" d="M27 0v-27h64v-190l-56 39v-29l58-41h29v221h61V0H27" id="w"/><path fill="#333" d="M33-261c38 41 65 92 65 168S71 34 33 75H2C39 34 66-17 66-93S39-220 2-261h31" id="x"/><g id="g"><use transform="matrix(0.04320987654320987,0,0,0.04320987654320987,0,0)" xlink:href="#v"/><use transform="matrix(0.04320987654320987,0,0,0.04320987654320987,5.141975308641975,0)" xlink:href="#w"/><use transform="matrix(0.04320987654320987,0,0,0.04320987654320987,13.783950617283947,0)" xlink:href="#x"/></g><path fill="#333" d="M155-56V0h-30v-56H8v-25l114-167h33v167h35v25h-35zm-30-156c-27 46-58 90-88 131h88v-131" id="y"/><g id="h"><use transform="matrix(0.04320987654320987,0,0,0.04320987654320987,0,0)" xlink:href="#v"/><use transform="matrix(0.04320987654320987,0,0,0.04320987654320987,5.141975308641975,0)" xlink:href="#y"/><use transform="matrix(0.04320987654320987,0,0,0.04320987654320987,13.783950617283947,0)" xlink:href="#x"/></g><path fill="#333" d="M101-251c82-7 93 87 43 132L82-64C71-53 59-42 53-27h129V0H18c2-99 128-94 128-182 0-28-16-43-45-43s-46 15-49 41l-32-3c6-41 34-60 81-64" id="z"/><g id="i"><use transform="matrix(0.04320987654320987,0,0,0.04320987654320987,0,0)" xlink:href="#v"/><use transform="matrix(0.04320987654320987,0,0,0.04320987654320987,5.141975308641975,0)" xlink:href="#z"/><use transform="matrix(0.04320987654320987,0,0,0.04320987654320987,13.783950617283947,0)" xlink:href="#x"/></g><path fill="#333" d="M126-127c33 6 58 20 58 59 0 88-139 92-164 29-3-8-5-16-6-25l32-3c6 27 21 44 54 44 32 0 52-15 52-46 0-38-36-46-79-43v-28c39 1 72-4 72-42 0-27-17-43-46-43-28 0-47 15-49 41l-32-3c6-42 35-63 81-64 48-1 79 21 79 65 0 36-21 52-52 59" id="A"/><g id="j"><use transform="matrix(0.04320987654320987,0,0,0.04320987654320987,0,0)" xlink:href="#v"/><use transform="matrix(0.04320987654320987,0,0,0.04320987654320987,5.141975308641975,0)" xlink:href="#A"/><use transform="matrix(0.04320987654320987,0,0,0.04320987654320987,13.783950617283947,0)" xlink:href="#x"/></g></defs></g></svg>