<svg xmlns="http://www.w3.org/2000/svg" xmlns:xlink="http://www.w3.org/1999/xlink" xmlns:lucid="lucid" width="620" height="380"><g transform="translate(-80 -40)" lucid:page-tab-id="0_0"><path d="M320 126a6 6 0 0 1 6-6h48a6 6 0 0 1 6 6v108a6 6 0 0 1-6 6h-48a6 6 0 0 1-6-6z" fill-opacity="0"/><path d="M335.94 120.06l10.87-.02m5.45 0l10.87-.02m5.44 0L374 120l.94.07.9.22.88.35.8.5.72.6.6.72.5.8.37.88.23.9v5.2m0 5.2v10.36m0 5.2l.02 10.37m0 5.2v10.37m0 5.18l.02 10.38m0 5.2v10.36m.02 5.2v10.36m0 5.2V234l-.07.94-.22.9-.35.88-.5.8-.6.72-.72.6-.8.5-.88.37-.9.23h-5.45m-5.44 0l-10.87.03m-5.45 0l-10.87.02m-5.44 0L326 240l-.94-.07-.9-.22-.88-.35-.8-.5-.72-.6-.6-.72-.5-.8-.37-.88-.23-.9v-5.2m0-5.2V214.2m0-5.2l-.02-10.37m0-5.2v-10.37m0-5.18l-.02-10.38m0-5.2v-10.36m-.02-5.2V136.4m0-5.2V126l.07-.94.22-.9.35-.88.5-.8.6-.72.72-.6.8-.5.88-.37.9-.23h5.45" stroke="#5e5e5e" fill="none"/><path d="M520 126a6 6 0 0 1 6-6h48a6 6 0 0 1 6 6v108a6 6 0 0 1-6 6h-48a6 6 0 0 1-6-6z" fill-opacity="0"/><path d="M535.94 120.06l10.87-.02m5.45 0l10.87-.02m5.44 0L574 120l.94.07.9.22.88.35.8.5.72.6.6.72.5.8.37.88.23.9v5.2m0 5.2v10.36m0 5.2l.02 10.37m0 5.2v10.37m0 5.18l.02 10.38m0 5.2v10.36m.02 5.2v10.36m0 5.2V234l-.07.94-.22.9-.35.88-.5.8-.6.72-.72.6-.8.5-.88.37-.9.23h-5.45m-5.44 0l-10.87.03m-5.45 0l-10.87.02m-5.44 0L526 240l-.94-.07-.9-.22-.88-.35-.8-.5-.72-.6-.6-.72-.5-.8-.37-.88-.23-.9v-5.2m0-5.2V214.2m0-5.2l-.02-10.37m0-5.2v-10.37m0-5.18l-.02-10.38m0-5.2v-10.36m-.02-5.2V136.4m0-5.2V126l.07-.94.22-.9.35-.88.5-.8.6-.72.72-.6.8-.5.88-.37.9-.23h5.45" stroke="#5e5e5e" fill="none"/><path d="M320 326a6 6 0 0 1 6-6h48a6 6 0 0 1 6 6v48a6 6 0 0 1-6 6h-48a6 6 0 0 1-6-6z" stroke="#5e5e5e" stroke-width="2" fill="#fff"/><use xlink:href="#a" transform="matrix(1,0,0,1,332,332) translate(9.998697916666668 25.828124999999996)"/><path d="M420 326a6 6 0 0 1 6-6h48a6 6 0 0 1 6 6v48a6 6 0 0 1-6 6h-48a6 6 0 0 1-6-6z" stroke="#5e5e5e" stroke-width="2" fill="#fff"/><use xlink:href="#b" transform="matrix(1,0,0,1,432,332) translate(9.998697916666668 25.828124999999996)"/><path d="M520 326a6 6 0 0 1 6-6h48a6 6 0 0 1 6 6v48a6 6 0 0 1-6 6h-48a6 6 0 0 1-6-6z" stroke="#5e5e5e" stroke-width="2" fill="#fff"/><use xlink:href="#c" transform="matrix(1,0,0,1,532,332) translate(9.998697916666668 25.828124999999996)"/><path d="M620 326a6 6 0 0 1 6-6h48a6 6 0 0 1 6 6v48a6 6 0 0 1-6 6h-48a6 6 0 0 1-6-6z" stroke="#5e5e5e" stroke-width="2" fill="#ccc"/><use xlink:href="#d" transform="matrix(1,0,0,1,632,332) translate(-2.0032552083333144 24.662326388888882)"/><path d="M382.46 350h15.96" stroke="#5e5e5e" stroke-width="3" fill="none"/><path d="M382.5 351.5h-1.53v-3h1.53z" stroke="#5e5e5e" stroke-width=".05" fill="#5e5e5e"/><path d="M414.18 350l-14.26 4.64v-9.28z" stroke="#5e5e5e" stroke-width="3" fill="#5e5e5e"/><path d="M482.46 350h15.96" stroke="#5e5e5e" stroke-width="3" fill="none"/><path d="M482.5 351.5h-1.53v-3h1.53z" stroke="#5e5e5e" stroke-width=".05" fill="#5e5e5e"/><path d="M514.18 350l-14.26 4.64v-9.28z" stroke="#5e5e5e" stroke-width="3" fill="#5e5e5e"/><path d="M582.46 350h15.96" stroke="#5e5e5e" stroke-width="3" fill="none"/><path d="M582.5 351.5h-1.53v-3h1.53z" stroke="#5e5e5e" stroke-width=".05" fill="#5e5e5e"/><path d="M614.18 350l-14.26 4.64v-9.28z" stroke="#5e5e5e" stroke-width="3" fill="#5e5e5e"/><path d="M220 326a6 6 0 0 1 6-6h48a6 6 0 0 1 6 6v48a6 6 0 0 1-6 6h-48a6 6 0 0 1-6-6z" stroke="#5e5e5e" stroke-width="2" fill="#ccc"/><use xlink:href="#e" transform="matrix(1,0,0,1,232,332) translate(-2.0032552083333286 24.662326388888886)"/><path d="M282.46 350h15.96" stroke="#5e5e5e" stroke-width="3" fill="none"/><path d="M282.5 351.5h-1.53v-3h1.53z" stroke="#5e5e5e" stroke-width=".05" fill="#5e5e5e"/><path d="M314.18 350l-14.26 4.64v-9.28z" stroke="#5e5e5e" stroke-width="3" fill="#5e5e5e"/><path d="M320 126a6 6 0 0 1 6-6h48a6 6 0 0 1 6 6v48a6 6 0 0 1-6 6h-48a6 6 0 0 1-6-6z" stroke="#5e5e5e" stroke-width="2" fill="#fff"/><use xlink:href="#a" transform="matrix(1,0,0,1,332,132) translate(9.998697916666668 25.828124999999996)"/><path d="M520 126a6 6 0 0 1 6-6h48a6 6 0 0 1 6 6v48a6 6 0 0 1-6 6h-48a6 6 0 0 1-6-6z" stroke="#5e5e5e" stroke-width="2" fill="#fff"/><use xlink:href="#c" transform="matrix(1,0,0,1,532,132) translate(9.998697916666668 25.828124999999996)"/><path d="M620 126a6 6 0 0 1 6-6h48a6 6 0 0 1 6 6v48a6 6 0 0 1-6 6h-48a6 6 0 0 1-6-6z" stroke="#5e5e5e" stroke-width="2" fill="#ccc"/><use xlink:href="#d" transform="matrix(1,0,0,1,632,132) translate(-2.0032552083333144 24.662326388888882)"/><path d="M382.46 150h115.96" stroke="#5e5e5e" stroke-width="3" fill="none"/><path d="M382.5 151.5h-1.53v-3h1.53z" stroke="#5e5e5e" stroke-width=".05" fill="#5e5e5e"/><path d="M514.18 150l-14.26 4.64v-9.28z" stroke="#5e5e5e" stroke-width="3" fill="#5e5e5e"/><path d="M582.46 150h15.96" stroke="#5e5e5e" stroke-width="3" fill="none"/><path d="M582.5 151.5h-1.53v-3h1.53z" stroke="#5e5e5e" stroke-width=".05" fill="#5e5e5e"/><path d="M614.18 150l-14.26 4.64v-9.28z" stroke="#5e5e5e" stroke-width="3" fill="#5e5e5e"/><path d="M220 126a6 6 0 0 1 6-6h48a6 6 0 0 1 6 6v48a6 6 0 0 1-6 6h-48a6 6 0 0 1-6-6z" stroke="#5e5e5e" stroke-width="2" fill="#ccc"/><use xlink:href="#e" transform="matrix(1,0,0,1,232,132) translate(-2.0032552083333286 24.662326388888886)"/><path d="M282.46 150h15.96" stroke="#5e5e5e" stroke-width="3" fill="none"/><path d="M282.5 151.5h-1.53v-3h1.53z" stroke="#5e5e5e" stroke-width=".05" fill="#5e5e5e"/><path d="M314.18 150l-14.26 4.64v-9.28z" stroke="#5e5e5e" stroke-width="3" fill="#5e5e5e"/><path d="M480 260c11.05 0 20 8.95 20 20s-8.95 20-20 20h-60c-11.05 0-20-8.95-20-20s8.95-20 20-20z" stroke="#5e5e5e" fill="#282c33"/><use xlink:href="#f" transform="matrix(1,0,0,1,405,265) translate(17.22222222222223 19.75)"/><use xlink:href="#g" transform="matrix(1,0,0,1,405,265) translate(39.44444444444444 19.75)"/><use xlink:href="#h" transform="matrix(1,0,0,1,405,265) translate(61.666666666666664 19.75)"/><path d="M480 60c11.05 0 20 8.95 20 20s-8.95 20-20 20h-60c-11.05 0-20-8.95-20-20s8.95-20 20-20z" stroke="#5e5e5e" fill="#282c33"/><use xlink:href="#f" transform="matrix(1,0,0,1,405,65) translate(28.333333333333336 19.75)"/><use xlink:href="#h" transform="matrix(1,0,0,1,405,65) translate(50.55555555555556 19.75)"/><path d="M398.5 279.95l-4.4-.22-5.16-.8-4.92-1.25-4.66-1.73-4.4-2.15-4.14-2.56-3.83-2.95-3.5-3.32-3.16-3.66-2.78-3.96-2.38-4.26-1.94-4.48" stroke="#282c33" stroke-width="2" stroke-linejoin="round" fill="none"/><path d="M399.62 279l-.12.98.04 1.02-1.12-.05.1-2z" stroke="#282c33" stroke-width=".05" fill="#282c33"/><path d="M350.57 233.7l7.07 13.2-9.12 1.64z" stroke="#282c33" stroke-width="2" fill="#282c33"/><path d="M501.5 279.95l4.4-.22 5.16-.8 4.92-1.25 4.66-1.73 4.4-2.15 4.14-2.56 3.83-2.95 3.5-3.32 3.16-3.66 2.78-3.96 2.38-4.26 1.94-4.48" stroke="#282c33" stroke-width="2" stroke-linejoin="round" fill="none"/><path d="M501.58 280.95l-1.2.06.12-.98-.03-1.02 1-.05z" stroke="#282c33" stroke-width=".05" fill="#282c33"/><path d="M549.43 233.7l2.05 14.84-9.12-1.63z" stroke="#282c33" stroke-width="2" fill="#282c33"/><path d="M370 210c0 11.05-8.95 20-20 20s-20-8.95-20-20 8.95-20 20-20 20 8.95 20 20z" stroke="#282c33" fill="#fff"/><use xlink:href="#i" transform="matrix(1,0,0,1,335,195) translate(9.444444444444446 19.749999999999993)"/><path d="M570 210c0 11.05-8.95 20-20 20s-20-8.95-20-20 8.95-20 20-20 20 8.95 20 20z" stroke="#282c33" fill="#fff"/><use xlink:href="#j" transform="matrix(1,0,0,1,535,195) translate(9.444444444444446 19.75)"/><path d="M100 266a6 6 0 0 1 6-6h108a6 6 0 0 1 6 6v128a6 6 0 0 1-6 6H106a6 6 0 0 1-6-6z" fill="none"/><path d="M220 400c-5.52 0-10-4.48-10-10v-50c0-5.52-4.48-10-10-10 5.52 0 10-4.48 10-10v-50c0-5.52 4.48-10 10-10" stroke="#5e5e5e" stroke-width="3" fill="none"/><use xlink:href="#k" transform="matrix(1,0,0,1,105,265) translate(11.635802469135818 56.111111111111114)"/><use xlink:href="#l" transform="matrix(1,0,0,1,105,265) translate(33.827160493827165 82.77777777777777)"/><path d="M100 66a6 6 0 0 1 6-6h108a6 6 0 0 1 6 6v168a6 6 0 0 1-6 6H106a6 6 0 0 1-6-6z" fill="none"/><path d="M220 240c-5.52 0-10-4.48-10-10v-70c0-5.52-4.48-10-10-10 5.52 0 10-4.48 10-10V70c0-5.52 4.48-10 10-10" stroke="#5e5e5e" stroke-width="3" fill="none"/><g><use xlink:href="#k" transform="matrix(1,0,0,1,105,65) translate(11.635802469135818 76.11111111111111)"/><use xlink:href="#m" transform="matrix(1,0,0,1,105,65) translate(21.17283950617285 102.77777777777777)"/></g><defs><path fill="#333" d="M138-1120c207-4 339-93 415-229h266v1140h323V0H149v-209h389v-891c-70 121-216 187-400 194v-214" id="n"/><use transform="matrix(0.013020833333333332,0,0,0.013020833333333332,0,0)" xlink:href="#n" id="a"/><path fill="#333" d="M788-691c191 26 337 112 337 315 0 286-214 399-510 399-306 0-483-128-522-391l286-25c18 124 91 190 235 188 132-2 223-58 223-188 0-176-191-182-378-179v-227c176 5 345-9 345-176 0-115-82-171-200-171s-198 55-206 169l-281-20c34-252 213-373 492-373 224 0 381 74 451 224 20 43 29 89 29 136 0 195-130 279-301 315v4" id="o"/><use transform="matrix(0.013020833333333332,0,0,0.013020833333333332,0,0)" xlink:href="#o" id="b"/><path fill="#333" d="M980-287V0H712v-287H71v-211l595-851h314v853h188v209H980zM712-496c2-204-7-417 9-609-118 224-277 405-414 609h405" id="p"/><use transform="matrix(0.013020833333333332,0,0,0.013020833333333332,0,0)" xlink:href="#p" id="c"/><path fill="#333" d="M305-1169c27 366 9 780 14 1169H99v-1349h347c49 189 108 371 150 564 12 56 15 107 23 166 33-270 117-487 176-730h335V0H908c5-390-13-801 16-1169-52 285-130 541-199 809H507c-70-267-148-525-202-809" id="q"/><path fill="#333" d="M1229 0H935l-92-330H387L295 0H0l443-1349h344zM615-1167c-46 213-110 412-166 615h332c-56-204-119-401-166-615" id="r"/><path fill="#333" d="M919 0L616-493 312 0H0l459-711-418-638h312l263 430 262-430h310L760-711 1229 0H919" id="s"/><g id="d"><use transform="matrix(0.010850694444444434,0,0,0.010850694444444434,0,0)" xlink:href="#q"/><use transform="matrix(0.010850694444444434,0,0,0.010850694444444434,13.335503472222209,0)" xlink:href="#r"/><use transform="matrix(0.010850694444444434,0,0,0.010850694444444434,26.671006944444418,0)" xlink:href="#s"/></g><path fill="#333" d="M157-1349h916v228H762v893h311V0H157v-228h311v-893H157v-228" id="t"/><path fill="#333" d="M865-312c-44-312-23-686-28-1037h257V0H748L364-1010c44 304 24 668 28 1010H135v-1349h337" id="u"/><g id="e"><use transform="matrix(0.010850694444444442,0,0,0.010850694444444442,0,0)" xlink:href="#q"/><use transform="matrix(0.010850694444444442,0,0,0.010850694444444442,13.33550347222222,0)" xlink:href="#t"/><use transform="matrix(0.010850694444444442,0,0,0.010850694444444442,26.67100694444444,0)" xlink:href="#u"/></g><path fill="#fff" d="M27 0v-27h64v-190l-56 39v-29l58-41h29v221h61V0H27" id="v"/><path fill="#fff" d="M68-38c1 34 0 65-14 84H32c9-13 17-26 17-46H33v-38h35" id="w"/><g id="f"><use transform="matrix(0.055555555555555546,0,0,0.055555555555555546,0,0)" xlink:href="#v"/><use transform="matrix(0.055555555555555546,0,0,0.055555555555555546,11.111111111111109,0)" xlink:href="#w"/></g><path fill="#fff" d="M126-127c33 6 58 20 58 59 0 88-139 92-164 29-3-8-5-16-6-25l32-3c6 27 21 44 54 44 32 0 52-15 52-46 0-38-36-46-79-43v-28c39 1 72-4 72-42 0-27-17-43-46-43-28 0-47 15-49 41l-32-3c6-42 35-63 81-64 48-1 79 21 79 65 0 36-21 52-52 59" id="x"/><g id="g"><use transform="matrix(0.055555555555555546,0,0,0.055555555555555546,0,0)" xlink:href="#x"/><use transform="matrix(0.055555555555555546,0,0,0.055555555555555546,11.111111111111109,0)" xlink:href="#w"/></g><path fill="#fff" d="M155-56V0h-30v-56H8v-25l114-167h33v167h35v25h-35zm-30-156c-27 46-58 90-88 131h88v-131" id="y"/><use transform="matrix(0.055555555555555546,0,0,0.055555555555555546,0,0)" xlink:href="#y" id="h"/><path fill="#333" d="M27 0v-27h64v-190l-56 39v-29l58-41h29v221h61V0H27" id="z"/><use transform="matrix(0.05555555555555554,0,0,0.05555555555555554,0,0)" xlink:href="#z" id="i"/><path fill="#333" d="M155-56V0h-30v-56H8v-25l114-167h33v167h35v25h-35zm-30-156c-27 46-58 90-88 131h88v-131" id="A"/><use transform="matrix(0.055555555555555546,0,0,0.055555555555555546,0,0)" xlink:href="#A" id="j"/><path fill="#333" d="M24 0v-248h52v208h133V0H24" id="B"/><path fill="#333" d="M185-48c-13 30-37 53-82 52C43 2 14-33 14-96s30-98 90-98c62 0 83 45 84 108H66c0 31 8 55 39 56 18 0 30-7 34-22zm-45-69c5-46-57-63-70-21-2 6-4 13-4 21h74" id="C"/><path fill="#333" d="M128 0H69L1-190h53L99-40l48-150h52" id="D"/><path fill="#333" d="M25 0v-261h50V0H25" id="E"/><g id="k"><use transform="matrix(0.06172839506172837,0,0,0.06172839506172837,0,0)" xlink:href="#B"/><use transform="matrix(0.06172839506172837,0,0,0.06172839506172837,13.518518518518514,0)" xlink:href="#C"/><use transform="matrix(0.06172839506172837,0,0,0.06172839506172837,25.86419753086419,0)" xlink:href="#D"/><use transform="matrix(0.06172839506172837,0,0,0.06172839506172837,38.20987654320986,0)" xlink:href="#C"/><use transform="matrix(0.06172839506172837,0,0,0.06172839506172837,50.55555555555553,0)" xlink:href="#E"/></g><path fill="#333" d="M128 0L95-87 70-74 55 0H6l51-261h49L77-111l82-79h56l-83 74L180 0h-52" id="F"/><use transform="matrix(0.06172839506172837,0,0,0.06172839506172837,0,0)" xlink:href="#F" id="l"/><path fill="#333" d="M132-100v72H92v-72H22v-39h70v-72h40v72h70v39h-70" id="G"/><path fill="#333" d="M6 0l7-41h62l31-161-67 37 8-42 70-41h48L124-41h57l-8 41H6" id="H"/><g id="m"><use transform="matrix(0.06172839506172837,0,0,0.06172839506172837,0,0)" xlink:href="#F"/><use transform="matrix(0.06172839506172837,0,0,0.06172839506172837,12.345679012345673,0)" xlink:href="#G"/><use transform="matrix(0.06172839506172837,0,0,0.06172839506172837,25.308641975308632,0)" xlink:href="#H"/></g></defs></g></svg>