<?xml version="1.0" encoding="utf-8"?>
<svg width="500" height="500" viewBox="0 0 500 500" version="1.1" xmlns="http://www.w3.org/2000/svg">
  <defs/>
  <path d="M 0 250.002 L 0 500.004 L 250.25 499.752 L 500.5 499.5 L 500.752 249.75 L 501.004 0 L 250.502 0 L 0 0 L 0 250.002 M 139 127.5 L 139 155 L 180.5 155 L 222 155 L 222 250 L 222 345 L 180.5 345 L 139 345 L 139 372.5 L 139 400 L 250 400 L 361 400 L 361 372.5 L 361 345 L 319.5 345 L 278 345 L 278 250 L 278 155 L 319.5 155 L 361 155 L 361 127.5 L 361 100 L 250 100 L 139 100 L 139 127.5" stroke="none" fill="#0404cc" fill-rule="evenodd"/>
  <path d="M 139 127.500 L 139 155 180.500 155 L 222 155 222 250 L 222 345 180.500 345 L 139 345 139 372.500 L 139 400 250 400 L 361 400 361 372.500 L 361 345 319.500 345 L 278 345 278 250 L 278 155 319.500 155 L 361 155 361 127.500 L 361 100 250 100 L 139 100 139 127.500" stroke="none" fill="#f9f9fb" fill-rule="evenodd"/>
</svg>