<?xml version="1.0" encoding="UTF-8"?>
<!DOCTYPE svg PUBLIC "-//W3C//DTD SVG 1.1//EN" "http://www.w3.org/Graphics/SVG/1.1/DTD/svg11.dtd">
<svg xmlns="http://www.w3.org/2000/svg" version="1.1" width="1024px" height="1024px" style="shape-rendering:geometricPrecision; text-rendering:geometricPrecision; image-rendering:optimizeQuality; fill-rule:evenodd; clip-rule:evenodd" xmlns:xlink="http://www.w3.org/1999/xlink">
<g><path style="opacity:1" fill="#a0c814" d="M -0.5,-0.5 C 340.833,-0.5 682.167,-0.5 1023.5,-0.5C 1023.5,340.833 1023.5,682.167 1023.5,1023.5C 682.167,1023.5 340.833,1023.5 -0.5,1023.5C -0.5,682.167 -0.5,340.833 -0.5,-0.5 Z"/></g>
<g><path style="opacity:1" fill="#fefefd" d="M 483.5,102.5 C 492.833,102.5 502.167,102.5 511.5,102.5C 511.5,113.167 511.5,123.833 511.5,134.5C 397.066,136.978 301.899,180.645 226,265.5C 148.649,358.89 120.649,465.557 142,585.5C 171.503,714.656 246.67,806.156 367.5,860C 470.592,900.121 572.592,897.455 673.5,852C 768.345,804.806 833.512,731.306 869,631.5C 881.782,592.528 888.282,552.528 888.5,511.5C 899.167,511.5 909.833,511.5 920.5,511.5C 916.439,661.174 852.439,777.008 728.5,859C 621.149,922.525 507.482,936.858 387.5,902C 270.036,862.206 185.87,785.706 135,672.5C 94.715,572.819 92.0484,472.153 127,370.5C 172.833,254 254,172.833 370.5,127C 407.286,114.098 444.952,105.932 483.5,102.5 Z"/></g>
<g><path style="opacity:1" fill="#fefefd" d="M 755.5,102.5 C 819.692,99.0073 868.525,124.341 902,178.5C 924.457,222.197 926.457,266.863 908,312.5C 883.22,363.252 842.72,392.419 786.5,400C 721.713,403.697 672.88,377.863 640,322.5C 611.541,263.19 617.208,207.523 657,155.5C 683.461,125.847 716.294,108.18 755.5,102.5 Z"/></g>
<g><path style="opacity:1" fill="#a0c814" d="M 757.5,135.5 C 806.22,132.778 844.053,151.445 871,191.5C 891.191,227.605 892.858,264.605 876,302.5C 850.124,349.284 810.291,370.784 756.5,367C 698.58,355.667 665.08,320.833 656,262.5C 654.079,204.828 679.579,164.661 732.5,142C 740.838,139.333 749.172,137.167 757.5,135.5 Z"/></g>
<g><path style="opacity:1" fill="#fefefd" d="M 498.5,167.5 C 502.833,167.5 507.167,167.5 511.5,167.5C 511.5,178.833 511.5,190.167 511.5,201.5C 411.398,202.972 329.898,242.305 267,319.5C 197.934,412.956 182.934,514.623 222,624.5C 260.1,716.144 326.267,777.644 420.5,809C 509.38,833.848 593.714,823.182 673.5,777C 769.048,714.793 818.715,626.293 822.5,511.5C 833.167,511.5 843.833,511.5 854.5,511.5C 853.018,615.271 814.018,701.771 737.5,771C 653.719,840.619 557.719,866.953 449.5,850C 348.943,829.373 271.443,775.873 217,689.5C 161.731,592.541 153.065,491.541 191,386.5C 230.198,290.968 298.032,224.802 394.5,188C 428.346,176.307 463.013,169.474 498.5,167.5 Z"/></g>
<g><path style="opacity:1" fill="#fefefd" d="M 485.5,234.5 C 494.167,234.5 502.833,234.5 511.5,234.5C 511.5,245.5 511.5,256.5 511.5,267.5C 420.012,269.981 349.846,309.647 301,386.5C 256.152,467.571 255.152,549.238 298,631.5C 346.104,710.996 416.937,752.663 510.5,756.5C 599.218,753.905 668.384,716.238 718,643.5C 743.064,603.135 755.897,559.135 756.5,511.5C 767.167,511.5 777.833,511.5 788.5,511.5C 785.632,617.446 739.299,697.946 649.5,753C 574.738,793.221 497.071,799.888 416.5,773C 324.418,736.582 265.918,670.415 241,574.5C 221.811,481.39 242.811,398.724 304,326.5C 353.037,273.398 413.537,242.731 485.5,234.5 Z"/></g>
<g><path style="opacity:1" fill="#fefefd" d="M 334.5,482.5 C 333.111,487.269 332.444,492.269 332.5,497.5C 329.958,570.257 358.958,626.424 419.5,666C 485.891,702.099 550.891,699.766 614.5,659C 663.969,622.572 689.636,573.405 691.5,511.5C 702.167,511.5 712.833,511.5 723.5,511.5C 721.231,589.23 687.898,649.397 623.5,692C 560.881,728.178 495.881,733.178 428.5,707C 352.451,671.11 309.618,611.276 300,527.5C 296.972,442.383 330.805,376.549 401.5,330C 435.301,309.567 471.968,299.401 511.5,299.5C 511.5,310.5 511.5,321.5 511.5,332.5C 443.399,334.169 391.566,363.836 356,421.5C 345.148,440.557 337.981,460.891 334.5,482.5 Z"/></g>
<g><path style="opacity:1" fill="#fefefd" d="M 625.5,518.5 C 626.461,516.735 626.795,514.735 626.5,512.5C 636.833,512.5 647.167,512.5 657.5,512.5C 657.5,515.833 657.5,519.167 657.5,522.5C 651.788,578.697 623.788,619.53 573.5,645C 506.53,671.547 448.363,658.713 399,606.5C 366.377,564.986 357.043,518.652 371,467.5C 395.334,402.688 442.168,368.354 511.5,364.5C 511.5,375.5 511.5,386.5 511.5,397.5C 462.05,399.471 426.883,422.805 406,467.5C 389.999,510.834 396.332,550.501 425,586.5C 466.009,628.364 513.176,636.864 566.5,612C 601.966,590.92 621.633,559.754 625.5,518.5 Z"/></g>
<g><path style="opacity:1" fill="#c1da67" d="M 334.5,482.5 C 334.556,487.731 333.889,492.731 332.5,497.5C 332.444,492.269 333.111,487.269 334.5,482.5 Z"/></g>
<g><path style="opacity:1" fill="#eff6d7" d="M 657.5,522.5 C 657.5,519.167 657.5,515.833 657.5,512.5C 647.167,512.5 636.833,512.5 626.5,512.5C 626.795,514.735 626.461,516.735 625.5,518.5C 625.5,516.167 625.5,513.833 625.5,511.5C 636.5,511.5 647.5,511.5 658.5,511.5C 658.815,515.371 658.482,519.038 657.5,522.5 Z"/></g>
</svg>
