<?xml version="1.0" encoding="UTF-8"?>
<!DOCTYPE svg PUBLIC "-//W3C//DTD SVG 1.1//EN" "http://www.w3.org/Graphics/SVG/1.1/DTD/svg11.dtd">
<svg xmlns="http://www.w3.org/2000/svg" version="1.1" width="413px" height="500px" style="shape-rendering:geometricPrecision; text-rendering:geometricPrecision; image-rendering:optimizeQuality; fill-rule:evenodd; clip-rule:evenodd" xmlns:xlink="http://www.w3.org/1999/xlink">
<g><path style="opacity:0.999" fill="#01a0e4" d="M -0.5,-0.5 C 137.167,-0.5 274.833,-0.5 412.5,-0.5C 412.5,77.8333 412.5,156.167 412.5,234.5C 405.068,290.073 383.902,339.74 349,383.5C 309.407,431.29 262.574,469.956 208.5,499.5C 206.833,499.5 205.167,499.5 203.5,499.5C 145.764,468.289 96.5973,426.623 56,374.5C 24.5066,332.183 5.67323,284.85 -0.5,232.5C -0.5,154.833 -0.5,77.1667 -0.5,-0.5 Z"/></g>
<g><path style="opacity:1" fill="#fdfefe" d="M 231.5,43.5 C 248.981,42.4345 265.648,45.6012 281.5,53C 297.189,63.2737 301.689,77.107 295,94.5C 286.934,102.489 278.101,103.489 268.5,97.5C 265.033,94.2355 262.867,90.2355 262,85.5C 261.762,77.7906 261.096,70.1239 260,62.5C 254.64,52.0324 246.14,48.5324 234.5,52C 229.503,55.1432 226.336,59.6432 225,65.5C 224.667,155.167 224.333,244.833 224,334.5C 219.126,358.033 204.626,371.199 180.5,374C 162.905,376.69 146.239,374.024 130.5,366C 114.959,355.779 110.126,341.945 116,324.5C 122.53,317.502 130.364,315.668 139.5,319C 144.06,321.227 147.226,324.727 149,329.5C 148.381,340.267 150.048,350.6 154,360.5C 160.461,367.643 168.294,369.476 177.5,366C 180.333,364.5 182.5,362.333 184,359.5C 185.413,355.261 186.413,350.928 187,346.5C 187.333,257.5 187.667,168.5 188,79.5C 191.66,66.3486 199.493,56.5153 211.5,50C 218.179,47.505 224.846,45.3383 231.5,43.5 Z"/></g>
<g><path style="opacity:1" fill="#cdecf9" d="M 298.5,157.5 C 303.975,156.511 309.642,156.178 315.5,156.5C 315.5,148.5 315.5,140.5 315.5,132.5C 292.167,132.5 268.833,132.5 245.5,132.5C 245.5,140.5 245.5,148.5 245.5,156.5C 251.026,156.179 256.36,156.512 261.5,157.5C 255.833,157.5 250.167,157.5 244.5,157.5C 244.5,148.833 244.5,140.167 244.5,131.5C 268.5,131.5 292.5,131.5 316.5,131.5C 316.5,140.167 316.5,148.833 316.5,157.5C 310.5,157.5 304.5,157.5 298.5,157.5 Z"/></g>
<g><path style="opacity:1" fill="#fdfefe" d="M 298.5,157.5 C 298.5,200.5 298.5,243.5 298.5,286.5C 286.167,286.5 273.833,286.5 261.5,286.5C 261.5,243.5 261.5,200.5 261.5,157.5C 256.36,156.512 251.026,156.179 245.5,156.5C 245.5,148.5 245.5,140.5 245.5,132.5C 268.833,132.5 292.167,132.5 315.5,132.5C 315.5,140.5 315.5,148.5 315.5,156.5C 309.642,156.178 303.975,156.511 298.5,157.5 Z"/></g>
<g><path style="opacity:1" fill="#9fdaf4" d="M 149.5,286.5 C 149.5,235.167 149.5,183.833 149.5,132.5C 137.5,132.5 125.5,132.5 113.5,132.5C 113.5,183.833 113.5,235.167 113.5,286.5C 112.501,235.003 112.168,183.336 112.5,131.5C 125.167,131.5 137.833,131.5 150.5,131.5C 150.832,183.336 150.499,235.003 149.5,286.5 Z"/></g>
<g><path style="opacity:1" fill="#fefefe" d="M 149.5,286.5 C 137.5,286.5 125.5,286.5 113.5,286.5C 113.5,235.167 113.5,183.833 113.5,132.5C 125.5,132.5 137.5,132.5 149.5,132.5C 149.5,183.833 149.5,235.167 149.5,286.5 Z"/></g>
</svg>
